<svg width="18" height="17" viewBox="0 0 18 17" fill="none" xmlns="http://www.w3.org/2000/svg">
<path fill-rule="evenodd" clip-rule="evenodd" d="M14.5639 8.03739C14.5639 11.644 11.6409 14.5678 8.03525 14.5678C4.42958 14.5678 1.50661 11.644 1.50661 8.03739C1.50661 4.43076 4.42958 1.50701 8.03525 1.50701C11.6409 1.50701 14.5639 4.43076 14.5639 8.03739ZM13.6865 13.751C12.2349 15.1877 10.2387 16.0748 8.03525 16.0748C3.59751 16.0748 0 12.4763 0 8.03739C0 3.59846 3.59751 0 8.03525 0C12.473 0 16.0705 3.59846 16.0705 8.03739C16.0705 9.72793 15.5487 11.2966 14.6574 12.5909L17.8146 15.7489C18.0805 16.0149 18.0577 16.4692 17.7635 16.7634C17.4693 17.0577 17.0152 17.0806 16.7492 16.8145L13.6865 13.751Z" fill="white"/>
</svg>
