<svg width="32" height="41" viewBox="0 0 32 41" fill="none" xmlns="http://www.w3.org/2000/svg">
<path fill-rule="evenodd" clip-rule="evenodd" d="M13.9767 2.02334C13.9767 1.75763 14.029 1.49453 14.1307 1.24904C14.2324 1.00356 14.3814 0.780508 14.5693 0.592623C14.7572 0.404738 14.9802 0.2557 15.2257 0.154018C15.4712 0.0523353 15.7343 0 16 0C16.2657 0 16.5288 0.0523352 16.7743 0.154018C17.0198 0.2557 17.2428 0.404738 17.4307 0.592623C17.6186 0.780507 17.7676 1.00356 17.8693 1.24904C17.971 1.49452 18.0233 1.75763 18.0233 2.02334V2.16677C24.8871 3.14856 30.1634 9.05147 30.1634 16.1867V28.4054C30.1634 29.6506 30.658 30.8447 31.5385 31.7252C32.5244 32.7111 31.8261 34.3968 30.4319 34.3968H1.56811C0.173869 34.3968 -0.52437 32.7111 0.461506 31.7252C1.34197 30.8447 1.83661 29.6506 1.83661 28.4054L1.83662 16.1867C1.83662 9.05147 7.11289 3.14856 13.9767 2.16677V2.02334ZM27.1284 16.1867C27.1284 10.0407 22.146 5.05835 16 5.05835C9.85397 5.05835 4.87163 10.0407 4.87163 16.1867L4.87163 28.4054C4.87163 29.4298 4.66828 30.4333 4.28394 31.3618H27.7161C27.3317 30.4333 27.1284 29.4298 27.1284 28.4054V16.1867ZM20.0467 36.4201C20.0467 36.9515 19.942 37.4778 19.7386 37.9687C19.5353 38.4597 19.2372 38.9058 18.8614 39.2816C18.4857 39.6573 18.0396 39.9554 17.5486 40.1588C17.0576 40.3621 16.5314 40.4668 16 40.4668C15.4686 40.4668 14.9424 40.3621 14.4514 40.1588C13.9604 39.9554 13.5143 39.6573 13.1386 39.2816C12.7628 38.9058 12.4647 38.4597 12.2614 37.9687C12.058 37.4778 11.9533 36.9515 11.9533 36.4201H16H20.0467Z" fill="#1A1A1A"/>
</svg>
