<svg width="23" height="28" viewBox="0 0 23 28" fill="none" xmlns="http://www.w3.org/2000/svg">
<path d="M20.6025 18.1783V18.2868L20.7099 18.3021C21.6145 18.431 22.3127 19.2124 22.3127 20.1543V21.5063C22.3127 22.5386 21.4747 23.378 20.4447 23.378H14.6062H14.4406L14.486 23.5373C14.5714 23.8373 14.616 24.151 14.616 24.4703C14.616 26.3474 13.0916 27.875 11.2189 27.875C9.34607 27.875 7.8217 26.3474 7.8217 24.4703C7.8217 24.152 7.86626 23.8383 7.95176 23.5372L7.99696 23.378H7.83152H1.993C0.963004 23.378 0.125 22.5386 0.125 21.5063V20.1543C0.125 19.2124 0.823202 18.4311 1.72874 18.3021L1.83611 18.2868V18.1783V12.2521C1.83611 8.29251 4.28667 4.89725 7.74699 3.50996L7.8223 3.47977L7.82538 3.39869C7.8945 1.5816 9.3898 0.125 11.2189 0.125C13.0479 0.125 14.5432 1.5816 14.6123 3.39869L14.6154 3.47978L14.6907 3.50997C18.152 4.89726 20.6025 8.29345 20.6025 12.2521V18.1783ZM9.80471 23.5732H9.7303L9.69483 23.6386C9.55764 23.8916 9.48456 24.177 9.48456 24.4703C9.48456 25.4297 10.2621 26.2121 11.2189 26.2121C12.1756 26.2121 12.9531 25.4307 12.9531 24.4703C12.9531 24.177 12.8801 23.8916 12.7429 23.6386L12.7074 23.5732H12.633H9.80471ZM12.647 2.95089L12.882 2.98701L12.7785 2.77294C12.4976 2.19187 11.9057 1.78786 11.2189 1.78786C10.532 1.78786 9.94008 2.19187 9.65918 2.77294L9.55569 2.98701L9.79071 2.95089C10.2568 2.87925 10.7331 2.84204 11.2189 2.84204C11.7046 2.84204 12.1809 2.87925 12.647 2.95089ZM20.6075 21.6313H20.6517V21.5063V20.1543C20.6517 20.0466 20.5626 19.9464 20.4466 19.9464H19.7725C19.3128 19.9464 18.9406 19.5735 18.9406 19.1145V12.2521C18.9406 7.98067 15.4779 4.5049 11.2198 4.5049C6.96166 4.5049 3.49897 7.98067 3.49897 12.2521V19.1145C3.49897 19.5742 3.12606 19.9464 2.66707 19.9464H1.993C1.87696 19.9464 1.78786 20.0466 1.78786 20.1543V21.5063C1.78786 21.615 1.87794 21.7152 1.993 21.7152H20.4447C20.5128 21.7152 20.5707 21.6808 20.6075 21.6313Z" fill="#444444" stroke="white" stroke-width="0.25"/>
</svg>
