<svg width="20" height="19" viewBox="0 0 20 19" fill="none" xmlns="http://www.w3.org/2000/svg">
<path fill-rule="evenodd" clip-rule="evenodd" d="M16.1821 8.92806C16.1821 12.9344 12.9344 16.1821 8.92806 16.1821C4.92176 16.1821 1.67401 12.9344 1.67401 8.92806C1.67401 4.92176 4.92176 1.67401 8.92806 1.67401C12.9344 1.67401 16.1821 4.92176 16.1821 8.92806ZM15.2073 15.2748C13.5944 16.8707 11.3763 17.8561 8.92806 17.8561C3.99723 17.8561 0 13.8589 0 8.92806C0 3.99723 3.99723 0 8.92806 0C13.8589 0 17.8561 3.99723 17.8561 8.92806C17.8561 10.8059 17.2764 12.5484 16.2861 13.9862L19.794 17.4941C20.0895 17.7897 20.0641 18.2942 19.7372 18.6211C19.4103 18.9479 18.9058 18.9734 18.6103 18.6778L15.2073 15.2748Z" fill="#767676"/>
</svg>
