<svg width="128" height="128" viewBox="0 0 128 128" fill="none" xmlns="http://www.w3.org/2000/svg">
<path fill-rule="evenodd" clip-rule="evenodd" d="M64 118.4C94.0443 118.4 118.4 94.0443 118.4 64C118.4 33.9557 94.0443 9.6 64 9.6C33.9557 9.6 9.6 33.9557 9.6 64C9.6 94.0443 33.9557 118.4 64 118.4ZM64 128C99.3462 128 128 99.3462 128 64C128 28.6538 99.3462 0 64 0C28.6538 0 0 28.6538 0 64C0 99.3462 28.6538 128 64 128Z" fill="#228751"/>
<path fill-rule="evenodd" clip-rule="evenodd" d="M94.4656 39.5635C96.3526 41.2536 96.5226 44.1649 94.8452 46.0662L58.2739 87.5207C57.4374 88.4689 56.2499 89.0274 54.9914 89.0647C53.7329 89.102 52.5149 88.6146 51.6246 87.7176L33.3389 69.2934C31.5537 67.4946 31.5537 64.5782 33.3389 62.7794C35.1242 60.9807 38.0187 60.9807 39.8039 62.7794L54.6614 77.7495L88.0118 39.946C89.6891 38.0447 92.5786 37.8735 94.4656 39.5635Z" fill="#228751"/>
</svg>
