<svg width="26" height="32" viewBox="0 0 26 32" fill="none" xmlns="http://www.w3.org/2000/svg">
<path d="M13 1L25 5.5V15.5C25 15.9 24.6667 18 24.5 19L22.5 23.5L18 28L13.5 31H12L7.5 27.5L4 24L1 19L0.5 5.5L13 1Z" fill="#E9ECF9"/>
<path fill-rule="evenodd" clip-rule="evenodd" d="M12.6579 0.0599261C12.871 -0.0199754 13.1058 -0.0199754 13.3188 0.0599261L25.366 4.57762C25.7334 4.71537 25.9767 5.06655 25.9767 5.45888V16.0002C25.9767 20.938 22.6998 24.9417 19.6317 27.6262C18.0779 28.9858 16.5286 30.0505 15.3696 30.7749C14.7891 31.1377 14.304 31.4167 13.9618 31.6061C13.7907 31.7008 13.6552 31.7732 13.5612 31.8226C13.5141 31.8473 13.4775 31.8662 13.4519 31.8793L13.422 31.8945L13.4135 31.8989L13.4099 31.9006C13.4096 31.9008 13.4093 31.901 12.9884 31.0591C12.5675 31.901 12.5672 31.9008 12.5668 31.9006L12.5633 31.8989L12.5547 31.8945L12.5248 31.8793C12.4993 31.8662 12.4626 31.8473 12.4156 31.8226C12.3215 31.7732 12.186 31.7008 12.0149 31.6061C11.6728 31.4167 11.1877 31.1377 10.6072 30.7749C9.44813 30.0505 7.89879 28.9858 6.345 27.6262C3.27697 24.9417 0 20.938 0 16.0002V5.45888C0 5.06655 0.243365 4.71537 0.610713 4.57762L12.6579 0.0599261ZM12.9884 31.0591L12.5668 31.9006C12.8318 32.0331 13.1449 32.0331 13.4099 31.9006L12.9884 31.0591ZM12.9884 29.9933C13.0083 29.9823 13.0289 29.971 13.0502 29.9592C13.3669 29.7839 13.823 29.5217 14.3719 29.1786C15.4717 28.4913 16.9342 27.4854 18.3922 26.2096C21.3477 23.6235 24.0944 20.0977 24.0944 16.0002V6.11112L12.9884 1.94637L1.88237 6.11112V16.0002C1.88237 20.0977 4.62899 23.6235 7.58455 26.2096C9.04256 27.4854 10.505 28.4913 11.6048 29.1786C12.1537 29.5217 12.6098 29.7839 12.9265 29.9592C12.9478 29.971 12.9684 29.9823 12.9884 29.9933Z" fill="#6472B8"/>
<path fill-rule="evenodd" clip-rule="evenodd" d="M19.7123 11.2067C20.0661 11.5069 20.098 12.024 19.7835 12.3618L12.9263 19.7254C12.7695 19.8938 12.5469 19.993 12.3109 19.9996C12.0749 20.0063 11.8465 19.9197 11.6796 19.7604L8.25105 16.4876C7.91632 16.1681 7.91632 15.6501 8.25105 15.3306C8.58579 15.011 9.1285 15.011 9.46323 15.3306L12.249 17.9897L18.5022 11.2746C18.8167 10.9369 19.3585 10.9065 19.7123 11.2067Z" fill="#6472B8"/>
</svg>
