<svg width="50" height="31" viewBox="0 0 50 31" fill="none" xmlns="http://www.w3.org/2000/svg">
<path fill-rule="evenodd" clip-rule="evenodd" d="M29.871 22.1935C25.0251 22.1935 21.0968 26.1218 21.0968 30.9676H18C18 24.4115 23.3148 19.0967 29.871 19.0967H38.129C44.6852 19.0967 50 24.4115 50 30.9676H46.9032C46.9032 26.1218 42.9749 22.1935 38.129 22.1935H29.871Z" fill="#6472B8"/>
<path fill-rule="evenodd" clip-rule="evenodd" d="M34.0003 13.4194C36.8508 13.4194 39.1615 11.1086 39.1615 8.25806C39.1615 5.40756 36.8508 3.09677 34.0003 3.09677C31.1498 3.09677 28.839 5.40756 28.839 8.25806C28.839 11.1086 31.1498 13.4194 34.0003 13.4194ZM34.0003 16.5161C38.5611 16.5161 42.2583 12.8189 42.2583 8.25806C42.2583 3.69726 38.5611 0 34.0003 0C29.4394 0 25.7422 3.69726 25.7422 8.25806C25.7422 12.8189 29.4394 16.5161 34.0003 16.5161Z" fill="#6472B8"/>
<path d="M2 16H14" stroke="#6472B8" stroke-width="3" stroke-linecap="round" stroke-linejoin="round"/>
<path d="M8 22L8 10" stroke="#6472B8" stroke-width="3" stroke-linecap="round" stroke-linejoin="round"/>
</svg>
