<svg width="30" height="34" viewBox="0 0 30 34" fill="none" xmlns="http://www.w3.org/2000/svg">
<path d="M5.63766 0.999761L1 5.57117L5.63766 10.1426" stroke="#6472B8" stroke-width="2" stroke-linecap="round" stroke-linejoin="round"/>
<path d="M20 25V22.9349C20 18.3561 17.5671 15.3685 13.864 14.7845V12H11.1449V14.7845C7.50447 15.377 5 18.3646 5 22.9349V25H7.68336V22.918C7.68336 19.6934 9.08766 17.7383 11.1449 17.1628V25H13.864V17.1628C15.9571 17.7298 17.3077 19.6849 17.3077 22.918V25H20Z" fill="#6472B8"/>
<path d="M2.5459 5.57178H13.3671C21.9048 5.57178 28.826 11.7118 28.826 19.286C28.826 26.8602 21.9048 33.0002 13.3671 33.0002H2.5459" stroke="#6472B8" stroke-width="2" stroke-linecap="round"/>
</svg>
