<svg width="40" height="37" viewBox="0 0 40 37" fill="none" xmlns="http://www.w3.org/2000/svg">
<path fill-rule="evenodd" clip-rule="evenodd" d="M21.8605 36.7791C21.0898 36.7791 20.4651 36.1544 20.4651 35.3837C20.4651 34.6131 21.0898 33.9884 21.8605 33.9884C24.8962 33.9884 27.8637 33.0882 30.3878 31.4016C32.9119 29.7151 34.8792 27.3179 36.0409 24.5133C37.2026 21.7087 37.5066 18.6225 36.9144 15.6451C36.3221 12.6677 34.8603 9.93285 32.7137 7.78628C30.5672 5.6397 27.8322 4.17787 24.8549 3.58563C21.8775 2.99339 18.7913 3.29735 15.9867 4.45907C13.1821 5.62078 10.7849 7.58808 9.09837 10.1122C7.97705 11.7904 7.20333 13.6646 6.81066 15.6245L8.00008 14.7324C8.61658 14.27 9.49119 14.395 9.95357 15.0115C10.4159 15.628 10.291 16.5026 9.6745 16.965L5.96893 19.7442C5.73313 19.9264 5.43737 20.0349 5.11628 20.0349C4.79301 20.0349 4.49542 19.925 4.25885 19.7404L0.558222 16.965C-0.0582822 16.5026 -0.183226 15.628 0.279152 15.0115C0.74153 14.395 1.61614 14.27 2.23264 14.7324L3.91486 15.9941C4.30524 13.346 5.2787 10.8056 6.77799 8.56176C8.77119 5.57873 11.6042 3.25374 14.9188 1.8808C18.2333 0.507862 21.8806 0.148634 25.3993 0.848555C28.918 1.54847 32.1502 3.2761 34.687 5.81295C37.2239 8.34981 38.9515 11.582 39.6514 15.1007C40.3514 18.6194 39.9921 22.2667 38.6192 25.5812C37.2463 28.8958 34.9213 31.7288 31.9382 33.722C28.9552 35.7152 25.4481 36.7791 21.8605 36.7791Z" fill="#1A1A1A"/>
<path d="M28.2562 24.56V22.4831C28.2562 17.8782 25.941 14.8735 22.4171 14.2862V11.4858H19.8295V14.2862C16.3652 14.882 13.9819 17.8867 13.9819 22.4831V24.56H16.5355V22.466C16.5355 19.2231 17.8718 17.2568 19.8295 16.678V24.56H22.4171V16.678C24.4089 17.2483 25.6942 19.2145 25.6942 22.466V24.56H28.2562Z" fill="#1A1A1A"/>
</svg>
