<svg width="40" height="39" viewBox="0 0 40 39" fill="none" xmlns="http://www.w3.org/2000/svg">
<path d="M25 30.5659V29.1362C25 25.9663 23.3781 23.8979 20.9094 23.4937V21.5659H19.0966V23.4937C16.6696 23.9038 15 25.9722 15 29.1362V30.5659H16.7889V29.1245C16.7889 26.8921 17.7251 25.5386 19.0966 25.1401V30.5659H20.9094V25.1401C22.3047 25.5327 23.2051 26.8862 23.2051 29.1245V30.5659H25Z" fill="#1A1A1A"/>
<path fill-rule="evenodd" clip-rule="evenodd" d="M7.46391 14.5659H14.2831L29.9907 5.12738L29.196 3.75096C28.7818 3.03352 27.8637 2.78809 27.1454 3.20279L7.46391 14.5659ZM31.9811 8.57499L21.6045 14.5659H35.44L31.9811 8.57499ZM39.5524 16.7256C39.4965 16.6005 39.4335 16.4772 39.3635 16.3559L31.3635 2.49951C30.259 0.586337 27.8108 -0.0681253 25.8954 1.03772L2.0281 14.8175C0.808694 15.5216 0.0992005 16.7693 0.0296053 18.0768C0.0100611 18.2371 0 18.4003 0 18.5659V34.5659C0 36.7751 1.79086 38.5659 4 38.5659H36C38.2091 38.5659 40 36.7751 40 34.5659V18.5659C40 17.9023 39.8384 17.2765 39.5524 16.7256ZM36 17.0659H4C3.17157 17.0659 2.5 17.7375 2.5 18.5659V34.5659C2.5 35.3943 3.17157 36.0659 4 36.0659H36C36.8284 36.0659 37.5 35.3943 37.5 34.5659V18.5659C37.5 17.7375 36.8284 17.0659 36 17.0659Z" fill="#1A1A1A"/>
</svg>
