<svg width="31" height="34" viewBox="0 0 31 34" fill="none" xmlns="http://www.w3.org/2000/svg">
<path d="M29.6882 23.3098V10.5595C29.6877 10.0005 29.5401 9.45149 29.2604 8.96754C28.9806 8.48359 28.5786 8.08171 28.0945 7.80222L16.9379 1.42706C16.4533 1.14729 15.9037 1 15.3441 1C14.7846 1 14.2349 1.14729 13.7503 1.42706L2.59379 7.80222C2.1097 8.08171 1.70761 8.48359 1.42787 8.96754C1.14813 9.45149 1.00057 10.0005 1 10.5595V23.3098C1.00057 23.8688 1.14813 24.4178 1.42787 24.9018C1.70761 25.3857 2.1097 25.7876 2.59379 26.0671L13.7503 32.4422C14.2349 32.722 14.7846 32.8693 15.3441 32.8693C15.9037 32.8693 16.4533 32.722 16.9379 32.4422L28.0945 26.0671C28.5786 25.7876 28.9806 25.3857 29.2604 24.9018C29.5401 24.4178 29.6877 23.8688 29.6882 23.3098Z" fill="#E7E9FA" stroke="#6472B8" stroke-width="2" stroke-linecap="round" stroke-linejoin="round"/>
<path d="M15.3442 33V16.9346" stroke="#6472B8" stroke-width="2" stroke-linecap="round" stroke-linejoin="round"/>
<path d="M1.43042 8.90186L15.3442 16.9505L29.258 8.90186" fill="#E7E9FA"/>
<path d="M1.43042 8.90186L15.3442 16.9505L29.258 8.90186" stroke="#6472B8" stroke-width="2" stroke-linecap="round" stroke-linejoin="round"/>
<path d="M22.5162 12.7908L8.17212 4.51904" stroke="#6472B8" stroke-width="2" stroke-linecap="round" stroke-linejoin="round"/>
</svg>
