<svg width="40" height="41" viewBox="0 0 40 41" fill="none" xmlns="http://www.w3.org/2000/svg">
<path fill-rule="evenodd" clip-rule="evenodd" d="M18.0229 2.00337C19.231 1.33221 20.7 1.33221 21.9081 2.00337L35.8736 9.76199C37.1435 10.4675 37.931 11.8059 37.931 13.2586V28.5897C37.931 30.0424 37.1435 31.3809 35.8736 32.0863L21.9081 39.845C20.7 40.5161 19.231 40.5161 18.0229 39.845L4.05743 32.0863C2.78757 31.3809 2 30.0424 2 28.5897V13.2586C2 11.806 2.78757 10.4675 4.05743 9.76199L18.0229 2.00337ZM13.9682 6.92506L28.365 14.9233L34.3623 11.5914L19.9655 3.59323L13.9682 6.92506ZM35.5978 13.5741L21.1321 21.6106V37.607L35.5978 29.5705V13.5741ZM18.7989 37.607V21.6106L4.33318 13.5741V29.5705L18.7989 37.607ZM5.56875 11.5914L19.9655 19.5896L25.9628 16.2578L11.5661 8.2596L5.56875 11.5914Z" fill="#444444"/>
</svg>
