<svg width="18" height="18" viewBox="0 0 18 18" fill="none" xmlns="http://www.w3.org/2000/svg">
<path fill-rule="evenodd" clip-rule="evenodd" d="M13.606 4.5H16.1998C17.1939 4.5 17.9998 5.30588 17.9998 6.29998V8.09996C17.9998 8.85597 17.5337 9.50313 16.8732 9.76975C16.8763 9.81277 16.8779 9.85621 16.8779 9.90002C16.8779 10.0314 16.8635 10.1623 16.835 10.2905L15.435 16.5904C15.252 17.414 14.5215 17.9999 13.6779 17.9999H4.3219C3.47825 17.9999 2.7478 17.414 2.56479 16.5904L1.1648 10.2905C1.12583 10.1151 1.11388 9.94003 1.1262 9.76959C0.465902 9.50287 0 8.85582 0 8.09996V6.29998C0 5.30588 0.805879 4.5 1.79998 4.5H4.39379L6.39494 0.497699C6.61723 0.0531237 7.15783 -0.127076 7.60241 0.0952116C8.04698 0.3175 8.22718 0.858099 8.0049 1.30268L6.40623 4.5H11.5936L9.99491 1.30268C9.77262 0.858099 9.95282 0.3175 10.3974 0.0952116C10.842 -0.127076 11.3826 0.0531237 11.6049 0.497699L13.606 4.5ZM13.9023 7.1051C14.2175 6.94751 14.3998 6.62994 14.4 6.30002H16.1998V8.1H1.79998V6.30002H3.59976C3.59998 6.62994 3.78228 6.94751 4.09746 7.1051C4.54204 7.32739 5.08264 7.14719 5.30492 6.70262L5.50622 6.30002H12.4936L12.6949 6.70262C12.9172 7.14719 13.4578 7.32739 13.9023 7.1051ZM15.0779 9.89994H2.92193L4.32191 16.1998H13.6779L15.0779 9.89994Z" fill="#6472B8"/>
</svg>
