<svg width="125" height="44" viewBox="0 0 125 44" fill="none" xmlns="http://www.w3.org/2000/svg">
<rect width="125" height="44" rx="6" fill="#F1F1F1"/>
<path d="M23.4738 17.0083L24 17.5262L24.5262 17.0083C26.0644 15.494 28.5631 15.494 30.1013 17.0083C31.6329 18.5161 31.6329 20.9559 30.1013 22.4637L24.5963 27.8831C24.2655 28.2088 23.7345 28.2088 23.4037 27.8831L17.8987 22.4637C16.3671 20.9559 16.3671 18.5161 17.8987 17.0083C19.4369 15.494 21.9356 15.494 23.4738 17.0083Z" stroke="#444444" stroke-width="1.5"/>
<path d="M41.1605 27.6392C43.5121 27.6392 45.3814 25.7003 45.3814 22.9112V22.1655C45.3814 19.3764 43.7457 17.3977 40.733 17.3977C39.1818 17.3977 38.103 17.8452 37.8196 18.0092L38.1626 19.2969C38.6797 19.093 39.495 18.8196 40.6982 18.8196C42.8409 18.8196 43.6761 20.2614 43.706 22.071H36.9347V23.0256C36.9347 25.8544 38.3764 27.6392 41.1605 27.6392ZM43.6861 23.3736C43.5469 24.9993 42.6619 26.2372 41.1605 26.2372C39.2564 26.2372 38.6001 25.0739 38.5952 23.5874V23.3736H43.6861ZM47.9135 27.5H54.0634V26.1776H49.4498V17.3182H47.9135V27.5ZM57.6818 27.5L58.6165 24.8054H62.5938L63.5234 27.5H65.1541L61.4901 17.3182H59.7152L56.0511 27.5H57.6818ZM59.0639 23.5128L60.5653 19.1676H60.6449L62.1463 23.5128H59.0639ZM66.9616 17.3182H65.3011L68.9652 27.5H70.7401L74.4041 17.3182H72.7436L69.9098 25.6108H69.7955L66.9616 17.3182ZM80.4164 27.6392C82.7679 27.6392 84.6373 25.7003 84.6373 22.9112V22.1655C84.6373 19.3764 83.0016 17.3977 79.9888 17.3977C78.4377 17.3977 77.3588 17.8452 77.0755 18.0092L77.4185 19.2969C77.9355 19.093 78.7509 18.8196 79.954 18.8196C82.0968 18.8196 82.932 20.2614 82.9618 22.071H76.1905V23.0256C76.1905 25.8544 77.6323 27.6392 80.4164 27.6392ZM82.9419 23.3736C82.8027 24.9993 81.9178 26.2372 80.4164 26.2372C78.5123 26.2372 77.856 25.0739 77.851 23.5874V23.3736H82.9419ZM91.3745 27.5H97.8176V26.1776H92.9107V23.0604H97.4249V21.7429H92.9107V18.6406H97.758V17.3182H91.3745V27.5ZM99.8079 18.6406H102.98V27.5H104.511V18.6406H107.688V17.3182H99.8079V18.6406Z" fill="#444444"/>
</svg>
