<svg width="26" height="32" viewBox="0 0 26 32" fill="none" xmlns="http://www.w3.org/2000/svg">
<path fill-rule="evenodd" clip-rule="evenodd" d="M9.00339 6.07589C9.0034 5.46022 9.1981 4.5097 9.74652 3.74802C10.2503 3.04826 11.1007 2.43038 12.649 2.43038C14.1972 2.43038 15.0476 3.04826 15.5514 3.74802C16.0998 4.5097 16.2945 5.46022 16.2945 6.07589H9.00339ZM6.57301 8.50627V10.9367C6.57301 11.6078 7.11707 12.1519 7.7882 12.1519C8.45933 12.1519 9.00339 11.6078 9.00339 10.9367V8.50627H16.2945V10.9367C16.2945 11.6078 16.8386 12.1519 17.5097 12.1519C18.1808 12.1519 18.7249 11.6078 18.7249 10.9367V8.50627H21.7075L22.8626 26.9876C22.95 28.3867 21.8388 29.5696 20.4369 29.5696H4.86095C3.45906 29.5696 2.34786 28.3867 2.43531 26.9876L3.59039 8.50627H6.57301ZM6.57301 6.07589C6.57302 5.0713 6.86441 3.59151 7.77418 2.32793C8.72859 1.00237 10.3086 0 12.649 0C14.9893 0 16.5693 1.00237 17.5237 2.32793C18.4335 3.59151 18.7249 5.0713 18.7249 6.07589H22.4686C23.3242 6.07589 24.0323 6.74114 24.0857 7.59507L25.2882 26.836C25.4631 29.6343 23.2407 31.9999 20.4369 31.9999H4.86095C2.05716 31.9999 -0.165236 29.6343 0.0096597 26.836L1.21222 7.59507C1.26559 6.74114 1.97372 6.07589 2.82931 6.07589H6.57301Z" fill="#1A1A1A"/>
</svg>
