<svg width="16" height="15" viewBox="0 0 16 15" fill="none" xmlns="http://www.w3.org/2000/svg">
<mask id="path-1-inside-1" fill="white">
<path fill-rule="evenodd" clip-rule="evenodd" d="M1.37258 1.38096C3.20269 -0.46032 6.16989 -0.46032 8 1.38096C9.83011 -0.46032 12.7973 -0.46032 14.6274 1.38096C16.4575 3.22224 16.4575 6.20755 14.6274 8.04883C14.6274 8.04885 14.6274 8.04887 14.6274 8.04889L14.6274 8.04897L9.05746 13.653C8.47345 14.2405 7.5266 14.2405 6.9426 13.653L1.37261 8.04897L1.37267 8.04892C1.37264 8.04889 1.37261 8.04886 1.37258 8.04883C-0.457527 6.20755 -0.457527 3.22224 1.37258 1.38096Z"/>
</mask>
<path d="M8 1.38096L6.93611 2.43839L8 3.50877L9.06388 2.43839L8 1.38096ZM1.37258 1.38096L2.43647 2.43839L1.37258 1.38096ZM14.6274 1.38096L15.6913 0.323534V0.323534L14.6274 1.38096ZM14.6274 8.04883L15.6881 9.1095L15.6913 9.10626L14.6274 8.04883ZM14.6274 8.04889L13.5667 6.98823L12.512 8.04291L13.5607 9.10354L14.6274 8.04889ZM14.6274 8.04897L15.6913 9.1064L16.7396 8.05173L15.6941 6.99432L14.6274 8.04897ZM9.05746 13.653L10.1213 14.7104L10.1213 14.7104L9.05746 13.653ZM6.9426 13.653L5.87872 14.7104L6.9426 13.653ZM1.37261 8.04897L0.31077 6.9895L-0.744306 8.04693L0.308732 9.1064L1.37261 8.04897ZM1.37267 8.04892L2.43451 9.10839L3.48838 8.05216L2.43776 6.99271L1.37267 8.04892ZM1.37258 8.04883L2.43767 6.99262L2.43647 6.99141L1.37258 8.04883ZM9.06388 0.323534C6.64725 -2.10784 2.72533 -2.10784 0.3087 0.323534L2.43647 2.43839C3.68006 1.1872 5.69252 1.1872 6.93611 2.43839L9.06388 0.323534ZM15.6913 0.323534C13.2747 -2.10784 9.35274 -2.10784 6.93611 0.323533L9.06388 2.43839C10.3075 1.1872 12.3199 1.1872 13.5635 2.43839L15.6913 0.323534ZM15.6913 9.10626C18.1029 6.67994 18.1029 2.74985 15.6913 0.323534L13.5635 2.43839C14.8122 3.69463 14.8122 5.73516 13.5635 6.99141L15.6913 9.10626ZM15.688 9.10955V9.10955H15.688V9.10955H15.688V9.10954H15.688V9.10954H15.688V9.10954H15.688V9.10954H15.688V9.10954H15.688V9.10954H15.688V9.10954C15.688 9.10954 15.688 9.10954 15.688 9.10954V9.10954C15.688 9.10954 15.688 9.10954 15.688 9.10954V9.10954C15.688 9.10954 15.688 9.10954 15.688 9.10954V9.10954C15.688 9.10954 15.688 9.10954 15.688 9.10954V9.10954C15.688 9.10954 15.688 9.10954 15.688 9.10954V9.10953C15.688 9.10953 15.688 9.10953 15.688 9.10953C15.688 9.10953 15.688 9.10953 15.688 9.10953C15.688 9.10953 15.688 9.10953 15.688 9.10953C15.688 9.10953 15.688 9.10953 15.688 9.10953C15.688 9.10953 15.688 9.10953 15.688 9.10953C15.688 9.10953 15.688 9.10953 15.688 9.10953C15.688 9.10953 15.688 9.10953 15.688 9.10953C15.688 9.10953 15.688 9.10953 15.688 9.10953C15.688 9.10953 15.688 9.10953 15.688 9.10953C15.688 9.10953 15.688 9.10953 15.688 9.10953C15.688 9.10953 15.688 9.10953 15.688 9.10953C15.688 9.10953 15.688 9.10953 15.688 9.10953C15.688 9.10953 15.688 9.10953 15.688 9.10953C15.688 9.10953 15.688 9.10953 15.688 9.10953C15.688 9.10953 15.688 9.10953 15.688 9.10953C15.688 9.10953 15.688 9.10953 15.688 9.10953C15.688 9.10953 15.688 9.10953 15.688 9.10953C15.688 9.10953 15.688 9.10953 15.688 9.10953C15.688 9.10953 15.688 9.10953 15.688 9.10953C15.688 9.10952 15.688 9.10952 15.688 9.10952C15.688 9.10952 15.688 9.10952 15.688 9.10952C15.688 9.10952 15.688 9.10952 15.688 9.10952C15.688 9.10952 15.688 9.10952 15.688 9.10952C15.688 9.10952 15.688 9.10952 15.688 9.10952C15.688 9.10952 15.688 9.10952 15.688 9.10952C15.688 9.10952 15.688 9.10952 15.688 9.10952C15.688 9.10952 15.688 9.10952 15.688 9.10952C15.688 9.10952 15.688 9.10952 15.688 9.10952C15.688 9.10952 15.688 9.10952 15.688 9.10952C15.688 9.10952 15.688 9.10952 15.688 9.10952C15.688 9.10952 15.688 9.10952 15.688 9.10952C15.688 9.10952 15.688 9.10952 15.688 9.10952C15.688 9.10952 15.688 9.10952 15.688 9.10952C15.688 9.10952 15.688 9.10952 15.688 9.10952C15.688 9.10952 15.688 9.10952 15.6881 9.10952C15.6881 9.10952 15.6881 9.10952 15.6881 9.10952C15.6881 9.10952 15.6881 9.10952 15.6881 9.10952C15.6881 9.10952 15.6881 9.10952 15.6881 9.10952C15.6881 9.10952 15.6881 9.10952 15.6881 9.10952C15.6881 9.10952 15.6881 9.10952 15.6881 9.10952C15.6881 9.10952 15.6881 9.10952 15.6881 9.10952C15.6881 9.10952 15.6881 9.10952 15.6881 9.10951C15.6881 9.10951 15.6881 9.10951 15.6881 9.10951C15.6881 9.10951 15.6881 9.10951 15.6881 9.10951C15.6881 9.10951 15.6881 9.10951 15.6881 9.10951C15.6881 9.10951 15.6881 9.10951 15.6881 9.10951C15.6881 9.10951 15.6881 9.10951 15.6881 9.10951C15.6881 9.10951 15.6881 9.10951 15.6881 9.10951C15.6881 9.10951 15.6881 9.10951 15.6881 9.10951C15.6881 9.10951 15.6881 9.10951 15.6881 9.10951C15.6881 9.10951 15.6881 9.10951 15.6881 9.10951C15.6881 9.10951 15.6881 9.10951 15.6881 9.10951C15.6881 9.10951 15.6881 9.10951 15.6881 9.10951C15.6881 9.10951 15.6881 9.10951 15.6881 9.10951C15.6881 9.10951 15.6881 9.10951 15.6881 9.10951C15.6881 9.10951 15.6881 9.10951 15.6881 9.10951C15.6881 9.10951 15.6881 9.10951 15.6881 9.10951C15.6881 9.10951 15.6881 9.10951 15.6881 9.10951C15.6881 9.10951 15.6881 9.10951 15.6881 9.10951C15.6881 9.10951 15.6881 9.10951 15.6881 9.10951C15.6881 9.10951 15.6881 9.10951 15.6881 9.10951C15.6881 9.10951 15.6881 9.10951 15.6881 9.1095C15.6881 9.1095 15.6881 9.1095 15.6881 9.1095C15.6881 9.1095 15.6881 9.1095 15.6881 9.1095C15.6881 9.1095 15.6881 9.1095 15.6881 9.1095C15.6881 9.1095 15.6881 9.1095 15.6881 9.1095H15.6881C15.6881 9.1095 15.6881 9.1095 15.6881 9.1095H15.6881C15.6881 9.1095 15.6881 9.1095 15.6881 9.1095H15.6881C15.6881 9.1095 15.6881 9.1095 15.6881 9.1095H15.6881C15.6881 9.1095 15.6881 9.1095 15.6881 9.1095H15.6881C15.6881 9.1095 15.6881 9.1095 15.6881 9.1095H15.6881V9.1095H15.6881V9.1095H15.6881V9.1095H15.6881V9.10949H15.6881V9.10949H15.6881L13.5668 6.98817V6.98817C13.5668 6.98817 13.5668 6.98817 13.5668 6.98817C13.5668 6.98817 13.5668 6.98817 13.5668 6.98817V6.98817C13.5668 6.98817 13.5668 6.98817 13.5668 6.98817C13.5668 6.98817 13.5668 6.98817 13.5668 6.98817V6.98817C13.5668 6.98817 13.5668 6.98817 13.5668 6.98817C13.5668 6.98818 13.5668 6.98818 13.5668 6.98818V6.98818C13.5668 6.98818 13.5668 6.98818 13.5668 6.98818C13.5668 6.98818 13.5668 6.98818 13.5668 6.98818V6.98818C13.5667 6.98818 13.5667 6.98818 13.5667 6.98818C13.5667 6.98818 13.5667 6.98818 13.5667 6.98818V6.98818C13.5667 6.98818 13.5667 6.98818 13.5667 6.98818C13.5667 6.98818 13.5667 6.98818 13.5667 6.98818V6.98818C13.5667 6.98818 13.5667 6.98818 13.5667 6.98818C13.5667 6.98818 13.5667 6.98818 13.5667 6.98818V6.98818C13.5667 6.98818 13.5667 6.98818 13.5667 6.98818C13.5667 6.98818 13.5667 6.98818 13.5667 6.98818V6.98818C13.5667 6.98818 13.5667 6.98818 13.5667 6.98818C13.5667 6.98818 13.5667 6.98818 13.5667 6.98818V6.98818C13.5667 6.98818 13.5667 6.98818 13.5667 6.98818C13.5667 6.98818 13.5667 6.98818 13.5667 6.98818V6.98818C13.5667 6.98818 13.5667 6.98818 13.5667 6.98818C13.5667 6.98818 13.5667 6.98818 13.5667 6.98818V6.98818C13.5667 6.98818 13.5667 6.98818 13.5667 6.98818C13.5667 6.98818 13.5667 6.98818 13.5667 6.98818V6.98818C13.5667 6.98818 13.5667 6.98818 13.5667 6.98818C13.5667 6.98818 13.5667 6.98818 13.5667 6.98818V6.98819C13.5667 6.98819 13.5667 6.98819 13.5667 6.98819C13.5667 6.98819 13.5667 6.98819 13.5667 6.98819C13.5667 6.98819 13.5667 6.98819 13.5667 6.98819C13.5667 6.98819 13.5667 6.98819 13.5667 6.98819C13.5667 6.98819 13.5667 6.98819 13.5667 6.98819C13.5667 6.98819 13.5667 6.98819 13.5667 6.98819C13.5667 6.98819 13.5667 6.98819 13.5667 6.98819C13.5667 6.98819 13.5667 6.98819 13.5667 6.98819C13.5667 6.98819 13.5667 6.98819 13.5667 6.98819C13.5667 6.98819 13.5667 6.98819 13.5667 6.98819C13.5667 6.98819 13.5667 6.98819 13.5667 6.98819C13.5667 6.98819 13.5667 6.98819 13.5667 6.98819C13.5667 6.98819 13.5667 6.98819 13.5667 6.98819C13.5667 6.98819 13.5667 6.98819 13.5667 6.98819C13.5667 6.98819 13.5667 6.98819 13.5667 6.98819C13.5667 6.98819 13.5667 6.98819 13.5667 6.98819C13.5667 6.98819 13.5667 6.98819 13.5667 6.98819C13.5667 6.98819 13.5667 6.98819 13.5667 6.98819C13.5667 6.98819 13.5667 6.98819 13.5667 6.98819C13.5667 6.98819 13.5667 6.98819 13.5667 6.98819C13.5667 6.98819 13.5667 6.98819 13.5667 6.98819C13.5667 6.98819 13.5667 6.98819 13.5667 6.98819C13.5667 6.98819 13.5667 6.98819 13.5667 6.98819C13.5667 6.98819 13.5667 6.98819 13.5667 6.98819C13.5667 6.98819 13.5667 6.98819 13.5667 6.98819C13.5667 6.98819 13.5667 6.98819 13.5667 6.98819C13.5667 6.98819 13.5667 6.98819 13.5667 6.98819C13.5667 6.98819 13.5667 6.98819 13.5667 6.98819C13.5667 6.98819 13.5667 6.98819 13.5667 6.98819C13.5667 6.98819 13.5667 6.98819 13.5667 6.98819C13.5667 6.98819 13.5667 6.98819 13.5667 6.98819V6.9882C13.5667 6.9882 13.5667 6.9882 13.5667 6.9882C13.5667 6.9882 13.5667 6.9882 13.5667 6.9882V6.9882C13.5667 6.9882 13.5667 6.9882 13.5667 6.9882C13.5667 6.9882 13.5667 6.9882 13.5667 6.9882V6.9882C13.5667 6.9882 13.5667 6.9882 13.5667 6.9882H13.5667V6.9882C13.5667 6.9882 13.5667 6.9882 13.5667 6.9882H13.5667V6.9882C13.5667 6.9882 13.5667 6.9882 13.5667 6.9882H13.5667V6.9882C13.5667 6.9882 13.5667 6.9882 13.5667 6.9882H13.5667V6.9882C13.5667 6.9882 13.5667 6.9882 13.5667 6.9882H13.5667V6.9882C13.5667 6.9882 13.5667 6.9882 13.5667 6.9882H13.5667V6.9882C13.5667 6.9882 13.5667 6.9882 13.5667 6.9882H13.5667V6.9882C13.5667 6.9882 13.5667 6.9882 13.5667 6.9882H13.5667V6.9882C13.5667 6.9882 13.5667 6.9882 13.5667 6.98821H13.5667V6.98821C13.5667 6.98821 13.5667 6.98821 13.5667 6.98821H13.5667V6.98821C13.5667 6.98821 13.5667 6.98821 13.5667 6.98821H13.5667V6.98821C13.5667 6.98821 13.5667 6.98821 13.5667 6.98821H13.5667V6.98821C13.5667 6.98821 13.5667 6.98821 13.5667 6.98821H13.5667V6.98821C13.5667 6.98821 13.5667 6.98821 13.5667 6.98821H13.5667V6.98821C13.5667 6.98821 13.5667 6.98821 13.5667 6.98821H13.5667V6.98821C13.5667 6.98821 13.5667 6.98821 13.5667 6.98821H13.5667V6.98821C13.5667 6.98821 13.5667 6.98821 13.5667 6.98821H13.5667C13.5667 6.98821 13.5667 6.98821 13.5667 6.98821C13.5667 6.98821 13.5667 6.98821 13.5667 6.98821H13.5667C13.5667 6.98821 13.5667 6.98821 13.5667 6.98821C13.5667 6.98821 13.5667 6.98821 13.5667 6.98821H13.5667C13.5667 6.98822 13.5667 6.98822 13.5667 6.98822C13.5667 6.98822 13.5667 6.98822 13.5667 6.98822C13.5667 6.98822 13.5667 6.98822 13.5667 6.98822C13.5667 6.98822 13.5667 6.98822 13.5667 6.98822C13.5667 6.98822 13.5667 6.98822 13.5667 6.98822C13.5667 6.98822 13.5667 6.98822 13.5667 6.98822C13.5667 6.98822 13.5667 6.98822 13.5667 6.98822C13.5667 6.98822 13.5667 6.98822 13.5667 6.98822C13.5667 6.98822 13.5667 6.98822 13.5667 6.98822C13.5667 6.98822 13.5667 6.98822 13.5667 6.98822C13.5667 6.98822 13.5667 6.98822 13.5667 6.98822C13.5667 6.98822 13.5667 6.98822 13.5667 6.98822C13.5667 6.98822 13.5667 6.98822 13.5667 6.98822C13.5667 6.98822 13.5667 6.98822 13.5667 6.98822C13.5667 6.98822 13.5667 6.98822 13.5667 6.98822C13.5667 6.98822 13.5667 6.98822 13.5667 6.98822C13.5667 6.98822 13.5667 6.98822 13.5667 6.98822C13.5667 6.98822 13.5667 6.98822 13.5667 6.98822C13.5667 6.98822 13.5667 6.98822 13.5667 6.98822C13.5667 6.98822 13.5667 6.98822 13.5667 6.98822C13.5667 6.98822 13.5667 6.98822 13.5667 6.98822C13.5667 6.98822 13.5667 6.98822 13.5667 6.98822V6.98822C13.5667 6.98822 13.5667 6.98822 13.5667 6.98822C13.5667 6.98822 13.5667 6.98822 13.5667 6.98822V6.98822C13.5667 6.98822 13.5667 6.98822 13.5667 6.98822C13.5667 6.98822 13.5667 6.98822 13.5667 6.98822V6.98822C13.5667 6.98822 13.5667 6.98822 13.5667 6.98822C13.5667 6.98822 13.5667 6.98822 13.5667 6.98822V6.98823C13.5667 6.98823 13.5667 6.98823 13.5667 6.98823C13.5667 6.98823 13.5667 6.98823 13.5667 6.98823V6.98823C13.5667 6.98823 13.5667 6.98823 13.5667 6.98823C13.5667 6.98823 13.5667 6.98823 13.5667 6.98823L15.688 9.10955ZM13.5607 9.10354L13.5608 9.10362L15.6941 6.99432L15.694 6.99424L13.5607 9.10354ZM13.5636 6.99154L7.99357 12.5955L10.1213 14.7104L15.6913 9.1064L13.5636 6.99154ZM7.99357 12.5955C7.99219 12.5969 7.99194 12.5969 7.99287 12.5963C7.99373 12.5957 7.99488 12.5951 7.99612 12.5946C7.99845 12.5937 7.99976 12.5936 8.00003 12.5936C8.0003 12.5936 8.00161 12.5937 8.00394 12.5946C8.00518 12.5951 8.00633 12.5957 8.00719 12.5963C8.00812 12.5969 8.00787 12.5969 8.00648 12.5955L5.87872 14.7104C7.04923 15.888 8.95082 15.8881 10.1213 14.7104L7.99357 12.5955ZM8.00648 12.5955L2.4365 6.99154L0.308732 9.1064L5.87872 14.7104L8.00648 12.5955ZM2.43446 9.10845L2.43451 9.10839L0.310823 6.98944L0.31077 6.9895L2.43446 9.10845ZM0.307494 9.10505C0.307494 9.10505 0.307494 9.10505 0.307494 9.10505C0.307494 9.10505 0.307494 9.10505 0.307494 9.10505C0.307494 9.10505 0.307494 9.10505 0.307494 9.10505C0.307494 9.10505 0.307494 9.10505 0.307494 9.10505C0.307494 9.10505 0.307494 9.10505 0.307495 9.10505C0.307495 9.10505 0.307495 9.10505 0.307495 9.10505C0.307495 9.10505 0.307495 9.10505 0.307495 9.10505C0.307495 9.10505 0.307495 9.10505 0.307495 9.10505C0.307495 9.10505 0.307495 9.10505 0.307495 9.10505C0.307495 9.10505 0.307495 9.10505 0.307495 9.10505C0.307495 9.10505 0.307495 9.10505 0.307496 9.10505C0.307496 9.10505 0.307496 9.10505 0.307496 9.10505C0.307496 9.10505 0.307496 9.10505 0.307496 9.10505C0.307496 9.10505 0.307496 9.10505 0.307496 9.10505C0.307496 9.10505 0.307496 9.10505 0.307496 9.10505C0.307496 9.10505 0.307496 9.10505 0.307496 9.10505C0.307496 9.10505 0.307496 9.10505 0.307497 9.10505C0.307497 9.10505 0.307497 9.10505 0.307497 9.10505C0.307497 9.10505 0.307497 9.10505 0.307497 9.10505C0.307497 9.10505 0.307497 9.10505 0.307497 9.10505C0.307497 9.10505 0.307497 9.10505 0.307497 9.10505C0.307497 9.10505 0.307497 9.10505 0.307497 9.10505C0.307497 9.10505 0.307497 9.10505 0.307498 9.10505C0.307498 9.10505 0.307498 9.10505 0.307498 9.10505C0.307498 9.10505 0.307498 9.10505 0.307498 9.10505C0.307498 9.10505 0.307498 9.10505 0.307498 9.10505C0.307498 9.10505 0.307498 9.10505 0.307498 9.10505C0.307498 9.10505 0.307498 9.10505 0.307498 9.10505C0.307498 9.10505 0.307498 9.10505 0.307499 9.10505C0.307499 9.10505 0.307499 9.10505 0.307499 9.10505C0.307499 9.10505 0.307499 9.10505 0.307499 9.10505C0.307499 9.10505 0.307499 9.10505 0.307499 9.10505C0.307499 9.10505 0.307499 9.10505 0.307499 9.10505C0.307499 9.10505 0.307499 9.10505 0.307499 9.10505C0.307499 9.10505 0.307499 9.10505 0.307499 9.10505C0.3075 9.10505 0.3075 9.10505 0.3075 9.10505C0.3075 9.10505 0.3075 9.10505 0.3075 9.10505C0.3075 9.10505 0.3075 9.10505 0.3075 9.10505C0.3075 9.10505 0.3075 9.10505 0.3075 9.10505C0.3075 9.10505 0.3075 9.10505 0.3075 9.10505C0.3075 9.10505 0.3075 9.10505 0.307501 9.10505C0.307501 9.10505 0.307501 9.10505 0.307501 9.10505C0.307501 9.10505 0.307501 9.10505 0.307501 9.10505C0.307501 9.10505 0.307501 9.10505 0.307501 9.10505C0.307501 9.10505 0.307501 9.10505 0.307501 9.10505C0.307501 9.10505 0.307501 9.10505 0.307501 9.10505C0.307501 9.10505 0.307501 9.10505 0.307501 9.10505C0.307502 9.10505 0.307502 9.10505 0.307502 9.10505C0.307502 9.10505 0.307502 9.10505 0.307502 9.10505C0.307502 9.10505 0.307502 9.10505 0.307502 9.10505C0.307502 9.10505 0.307502 9.10505 0.307502 9.10505C0.307502 9.10505 0.307502 9.10505 0.307502 9.10505C0.307502 9.10505 0.307502 9.10505 0.307503 9.10505C0.307503 9.10505 0.307503 9.10505 0.307503 9.10505C0.307503 9.10505 0.307503 9.10505 0.307503 9.10505C0.307503 9.10505 0.307503 9.10505 0.307503 9.10505C0.307503 9.10505 0.307503 9.10505 0.307503 9.10506C0.307503 9.10506 0.307503 9.10506 0.307503 9.10506C0.307503 9.10506 0.307503 9.10506 0.307503 9.10506C0.307504 9.10506 0.307504 9.10506 0.307504 9.10506C0.307504 9.10506 0.307504 9.10506 0.307504 9.10506C0.307504 9.10506 0.307504 9.10506 0.307504 9.10506C0.307504 9.10506 0.307504 9.10506 0.307504 9.10506C0.307504 9.10506 0.307504 9.10506 0.307504 9.10506C0.307504 9.10506 0.307504 9.10506 0.307505 9.10506C0.307505 9.10506 0.307505 9.10506 0.307505 9.10506C0.307505 9.10506 0.307505 9.10506 0.307505 9.10506C0.307505 9.10506 0.307505 9.10506 0.307505 9.10506C0.307505 9.10506 0.307505 9.10506 0.307505 9.10506C0.307505 9.10506 0.307505 9.10506 0.307505 9.10506C0.307505 9.10506 0.307505 9.10506 0.307505 9.10506C0.307506 9.10506 0.307506 9.10506 0.307506 9.10506C0.307506 9.10506 0.307506 9.10506 0.307506 9.10506C0.307506 9.10506 0.307506 9.10506 0.307506 9.10506C0.307506 9.10506 0.307506 9.10506 0.307506 9.10506C0.307506 9.10506 0.307506 9.10506 0.307506 9.10506C0.307506 9.10506 0.307506 9.10506 0.307506 9.10506C0.307507 9.10506 0.307507 9.10506 0.307507 9.10506C0.307507 9.10506 0.307507 9.10506 0.307507 9.10506C0.307507 9.10506 0.307507 9.10506 0.307507 9.10506C0.307507 9.10506 0.307507 9.10506 0.307507 9.10506C0.307507 9.10506 0.307507 9.10506 0.307507 9.10506C0.307507 9.10506 0.307507 9.10506 0.307507 9.10506C0.307508 9.10506 0.307508 9.10506 0.307508 9.10506C0.307508 9.10506 0.307508 9.10506 0.307508 9.10506C0.307508 9.10506 0.307508 9.10506 0.307508 9.10506C0.307508 9.10506 0.307508 9.10506 0.307508 9.10506C0.307508 9.10506 0.307508 9.10506 0.307508 9.10506C0.307508 9.10506 0.307508 9.10506 0.307508 9.10506C0.307509 9.10506 0.307509 9.10506 0.307509 9.10506C0.307509 9.10506 0.307509 9.10506 0.307509 9.10506C0.307509 9.10506 0.307509 9.10506 0.307509 9.10506C0.307509 9.10506 0.307509 9.10506 0.307509 9.10506C0.307509 9.10506 0.307509 9.10506 0.307509 9.10506C0.307509 9.10506 0.307509 9.10506 0.307509 9.10506C0.30751 9.10506 0.30751 9.10506 0.30751 9.10506C0.30751 9.10506 0.30751 9.10506 0.30751 9.10506C0.30751 9.10506 0.30751 9.10506 0.30751 9.10506C0.30751 9.10506 0.30751 9.10506 0.30751 9.10506C0.30751 9.10506 0.30751 9.10506 0.30751 9.10506C0.30751 9.10506 0.30751 9.10506 0.30751 9.10506C0.307511 9.10506 0.307511 9.10506 0.307511 9.10506C0.307511 9.10506 0.307511 9.10506 0.307511 9.10506C0.307511 9.10506 0.307511 9.10506 0.307511 9.10506C0.307511 9.10506 0.307511 9.10506 0.307511 9.10506C0.307511 9.10506 0.307511 9.10506 0.307511 9.10506C0.307511 9.10506 0.307511 9.10506 0.307511 9.10506C0.307512 9.10506 0.307512 9.10506 0.307512 9.10506C0.307512 9.10506 0.307512 9.10506 0.307512 9.10506C0.307512 9.10506 0.307512 9.10506 0.307512 9.10506C0.307512 9.10506 0.307512 9.10506 0.307512 9.10506C0.307512 9.10506 0.307512 9.10506 0.307512 9.10506C0.307512 9.10506 0.307512 9.10506 0.307512 9.10506C0.307513 9.10506 0.307513 9.10506 0.307513 9.10507C0.307513 9.10507 0.307513 9.10507 0.307513 9.10507C0.307513 9.10507 0.307513 9.10507 0.307513 9.10507C0.307513 9.10507 0.307513 9.10507 0.307513 9.10507C0.307513 9.10507 0.307513 9.10507 0.307513 9.10507C0.307513 9.10507 0.307513 9.10507 0.307513 9.10507C0.307514 9.10507 0.307514 9.10507 0.307514 9.10507C0.307514 9.10507 0.307514 9.10507 0.307514 9.10507C0.307514 9.10507 0.307514 9.10507 0.307514 9.10507C0.307514 9.10507 0.307514 9.10507 0.307514 9.10507C0.307514 9.10507 0.307514 9.10507 0.307514 9.10507C0.307514 9.10507 0.307514 9.10507 0.307514 9.10507C0.307515 9.10507 0.307515 9.10507 0.307515 9.10507C0.307515 9.10507 0.307515 9.10507 0.307515 9.10507C0.307515 9.10507 0.307515 9.10507 0.307515 9.10507C0.307515 9.10507 0.307515 9.10507 0.307515 9.10507C0.307515 9.10507 0.307515 9.10507 0.307515 9.10507C0.307515 9.10507 0.307515 9.10507 0.307515 9.10507C0.307516 9.10507 0.307516 9.10507 0.307516 9.10507C0.307516 9.10507 0.307516 9.10507 0.307516 9.10507C0.307516 9.10507 0.307516 9.10507 0.307516 9.10507C0.307516 9.10507 0.307516 9.10507 0.307516 9.10507C0.307516 9.10507 0.307516 9.10507 0.307516 9.10507C0.307516 9.10507 0.307516 9.10507 0.307516 9.10507C0.307517 9.10507 0.307517 9.10507 0.307517 9.10507C0.307517 9.10507 0.307517 9.10507 0.307517 9.10507C0.307517 9.10507 0.307517 9.10507 0.307517 9.10507C0.307517 9.10507 0.307517 9.10507 0.307517 9.10507C0.307517 9.10507 0.307517 9.10507 0.307517 9.10507C0.307517 9.10507 0.307517 9.10507 0.307517 9.10507C0.307517 9.10507 0.307518 9.10507 0.307518 9.10507C0.307518 9.10507 0.307518 9.10507 0.307518 9.10507C0.307518 9.10507 0.307518 9.10507 0.307518 9.10507C0.307518 9.10507 0.307518 9.10507 0.307518 9.10507C0.307518 9.10507 0.307518 9.10507 0.307518 9.10507C0.307518 9.10507 0.307518 9.10507 0.307518 9.10507C0.307519 9.10507 0.307519 9.10507 0.307519 9.10507C0.307519 9.10507 0.307519 9.10507 0.307519 9.10507C0.307519 9.10507 0.307519 9.10507 0.307519 9.10507C0.307519 9.10507 0.307519 9.10507 0.307519 9.10507C0.307519 9.10507 0.307519 9.10507 0.307519 9.10507C0.307519 9.10507 0.307519 9.10507 0.307519 9.10507C0.307519 9.10507 0.30752 9.10507 0.30752 9.10507C0.30752 9.10507 0.30752 9.10507 0.30752 9.10507C0.30752 9.10507 0.30752 9.10507 0.30752 9.10507C0.30752 9.10507 0.30752 9.10507 0.30752 9.10507C0.30752 9.10507 0.30752 9.10507 0.30752 9.10507C0.30752 9.10507 0.30752 9.10507 0.30752 9.10507C0.307521 9.10507 0.307521 9.10507 0.307521 9.10507C0.307521 9.10507 0.307521 9.10507 0.307521 9.10507C0.307521 9.10507 0.307521 9.10507 0.307521 9.10507C0.307521 9.10507 0.307521 9.10507 0.307521 9.10507C0.307521 9.10507 0.307521 9.10507 0.307521 9.10507C0.307521 9.10507 0.307521 9.10507 0.307521 9.10507C0.307521 9.10507 0.307522 9.10507 0.307522 9.10507C0.307522 9.10507 0.307522 9.10507 0.307522 9.10507C0.307522 9.10507 0.307522 9.10507 0.307522 9.10507C0.307522 9.10507 0.307522 9.10507 0.307522 9.10507C0.307522 9.10507 0.307522 9.10507 0.307522 9.10507C0.307522 9.10507 0.307522 9.10507 0.307522 9.10507C0.307523 9.10507 0.307523 9.10507 0.307523 9.10507C0.307523 9.10507 0.307523 9.10507 0.307523 9.10507C0.307523 9.10507 0.307523 9.10507 0.307523 9.10507C0.307523 9.10507 0.307523 9.10508 0.307523 9.10508C0.307523 9.10508 0.307523 9.10508 0.307523 9.10508C0.307523 9.10508 0.307523 9.10508 0.307523 9.10508C0.307523 9.10508 0.307524 9.10508 0.307524 9.10508C0.307524 9.10508 0.307524 9.10508 0.307524 9.10508C0.307524 9.10508 0.307524 9.10508 0.307524 9.10508C0.307524 9.10508 0.307524 9.10508 0.307524 9.10508C0.307524 9.10508 0.307524 9.10508 0.307524 9.10508C0.307524 9.10508 0.307524 9.10508 0.307524 9.10508C0.307525 9.10508 0.307525 9.10508 0.307525 9.10508C0.307525 9.10508 0.307525 9.10508 0.307525 9.10508C0.307525 9.10508 0.307525 9.10508 0.307525 9.10508C0.307525 9.10508 0.307525 9.10508 0.307525 9.10508C0.307525 9.10508 0.307525 9.10508 0.307525 9.10508C0.307525 9.10508 0.307525 9.10508 0.307525 9.10508C0.307525 9.10508 0.307526 9.10508 0.307526 9.10508C0.307526 9.10508 0.307526 9.10508 0.307526 9.10508C0.307526 9.10508 0.307526 9.10508 0.307526 9.10508C0.307526 9.10508 0.307526 9.10508 0.307526 9.10508C0.307526 9.10508 0.307526 9.10508 0.307526 9.10508C0.307526 9.10508 0.307526 9.10508 0.307526 9.10508C0.307526 9.10508 0.307527 9.10508 0.307527 9.10508C0.307527 9.10508 0.307527 9.10508 0.307527 9.10508C0.307527 9.10508 0.307527 9.10508 0.307527 9.10508C0.307527 9.10508 0.307527 9.10508 0.307527 9.10508C0.307527 9.10508 0.307527 9.10508 0.307527 9.10508C0.307527 9.10508 0.307527 9.10508 0.307527 9.10508C0.307527 9.10508 0.307528 9.10508 0.307528 9.10508C0.307528 9.10508 0.307528 9.10508 0.307528 9.10508C0.307528 9.10508 0.307528 9.10508 0.307528 9.10508C0.307528 9.10508 0.307528 9.10508 0.307528 9.10508C0.307528 9.10508 0.307528 9.10508 0.307528 9.10508C0.307528 9.10508 0.307528 9.10508 0.307528 9.10508C0.307528 9.10508 0.307529 9.10508 0.307529 9.10508C0.307529 9.10508 0.307529 9.10508 0.307529 9.10508C0.307529 9.10508 0.307529 9.10508 0.307529 9.10508C0.307529 9.10508 0.307529 9.10508 0.307529 9.10508C0.307529 9.10508 0.307529 9.10508 0.307529 9.10508C0.307529 9.10508 0.307529 9.10508 0.307529 9.10508C0.307529 9.10508 0.30753 9.10508 0.30753 9.10508C0.30753 9.10508 0.30753 9.10508 0.30753 9.10508C0.30753 9.10508 0.30753 9.10508 0.30753 9.10508C0.30753 9.10508 0.30753 9.10508 0.30753 9.10508C0.30753 9.10508 0.30753 9.10508 0.30753 9.10508C0.30753 9.10508 0.30753 9.10508 0.30753 9.10508C0.30753 9.10508 0.307531 9.10508 0.307531 9.10508C0.307531 9.10508 0.307531 9.10508 0.307531 9.10508C0.307531 9.10508 0.307531 9.10508 0.307531 9.10508C0.307531 9.10508 0.307531 9.10508 0.307531 9.10508C0.307531 9.10508 0.307531 9.10508 0.307531 9.10508C0.307531 9.10508 0.307531 9.10508 0.307531 9.10508C0.307531 9.10508 0.307532 9.10508 0.307532 9.10508C0.307532 9.10508 0.307532 9.10508 0.307532 9.10508C0.307532 9.10508 0.307532 9.10508 0.307532 9.10508C0.307532 9.10508 0.307532 9.10508 0.307532 9.10508C0.307532 9.10508 0.307532 9.10508 0.307532 9.10508C0.307532 9.10508 0.307532 9.10508 0.307532 9.10508C0.307532 9.10509 0.307533 9.10509 0.307533 9.10509C0.307533 9.10509 0.307533 9.10509 0.307533 9.10509C0.307533 9.10509 0.307533 9.10509 0.307533 9.10509C0.307533 9.10509 0.307533 9.10509 0.307533 9.10509C0.307533 9.10509 0.307533 9.10509 0.307533 9.10509C0.307533 9.10509 0.307533 9.10509 0.307533 9.10509C0.307533 9.10509 0.307534 9.10509 0.307534 9.10509C0.307534 9.10509 0.307534 9.10509 0.307534 9.10509C0.307534 9.10509 0.307534 9.10509 0.307534 9.10509C0.307534 9.10509 0.307534 9.10509 0.307534 9.10509C0.307534 9.10509 0.307534 9.10509 0.307534 9.10509C0.307534 9.10509 0.307534 9.10509 0.307534 9.10509C0.307534 9.10509 0.307535 9.10509 0.307535 9.10509C0.307535 9.10509 0.307535 9.10509 0.307535 9.10509C0.307535 9.10509 0.307535 9.10509 0.307535 9.10509C0.307535 9.10509 0.307535 9.10509 0.307535 9.10509C0.307535 9.10509 0.307535 9.10509 0.307535 9.10509C0.307535 9.10509 0.307535 9.10509 0.307535 9.10509C0.307535 9.10509 0.307536 9.10509 0.307536 9.10509C0.307536 9.10509 0.307536 9.10509 0.307536 9.10509C0.307536 9.10509 0.307536 9.10509 0.307536 9.10509C0.307536 9.10509 0.307536 9.10509 0.307536 9.10509C0.307536 9.10509 0.307536 9.10509 0.307536 9.10509C0.307536 9.10509 0.307536 9.10509 0.307536 9.10509C0.307536 9.10509 0.307537 9.10509 0.307537 9.10509C0.307537 9.10509 0.307537 9.10509 0.307537 9.10509C0.307537 9.10509 0.307537 9.10509 0.307537 9.10509C0.307537 9.10509 0.307537 9.10509 0.307537 9.10509C0.307537 9.10509 0.307537 9.10509 0.307537 9.10509C0.307537 9.10509 0.307537 9.10509 0.307537 9.10509C0.307537 9.10509 0.307538 9.10509 0.307538 9.10509C0.307538 9.10509 0.307538 9.10509 0.307538 9.10509C0.307538 9.10509 0.307538 9.10509 0.307538 9.10509C0.307538 9.10509 0.307538 9.10509 0.307538 9.10509C0.307538 9.10509 0.307538 9.10509 0.307538 9.10509C0.307538 9.10509 0.307538 9.10509 0.307538 9.10509C0.307538 9.10509 0.307539 9.10509 0.307539 9.10509C0.307539 9.10509 0.307539 9.10509 0.307539 9.10509C0.307539 9.10509 0.307539 9.10509 0.307539 9.10509C0.307539 9.10509 0.307539 9.10509 0.307539 9.10509C0.307539 9.10509 0.307539 9.10509 0.307539 9.10509C0.307539 9.10509 0.307539 9.10509 0.307539 9.10509C0.307539 9.10509 0.30754 9.10509 0.30754 9.10509C0.30754 9.10509 0.30754 9.10509 0.30754 9.10509C0.30754 9.10509 0.30754 9.10509 0.30754 9.10509C0.30754 9.10509 0.30754 9.10509 0.30754 9.10509C0.30754 9.10509 0.30754 9.10509 0.30754 9.10509C0.30754 9.10509 0.30754 9.10509 0.30754 9.10509C0.30754 9.10509 0.307541 9.10509 0.307541 9.10509C0.307541 9.10509 0.307541 9.10509 0.307541 9.10509C0.307541 9.10509 0.307541 9.10509 0.307541 9.10509C0.307541 9.10509 0.307541 9.10509 0.307541 9.10509C0.307541 9.10509 0.307541 9.10509 0.307541 9.10509C0.307541 9.10509 0.307541 9.10509 0.307541 9.10509C0.307541 9.10509 0.307542 9.10509 0.307542 9.10509C0.307542 9.10509 0.307542 9.10509 0.307542 9.10509C0.307542 9.10509 0.307542 9.10509 0.307542 9.10509C0.307542 9.10509 0.307542 9.10509 0.307542 9.10509C0.307542 9.10509 0.307542 9.10509 0.307542 9.10509C0.307542 9.10509 0.307542 9.10509 0.307542 9.10509C0.307542 9.10509 0.307543 9.10509 0.307543 9.10509C0.307543 9.10509 0.307543 9.10509 0.307543 9.10509C0.307543 9.10509 0.307543 9.10509 0.307543 9.1051C0.307543 9.1051 0.307543 9.1051 0.307543 9.1051C0.307543 9.1051 0.307543 9.1051 0.307543 9.1051C0.307543 9.1051 0.307543 9.1051 0.307543 9.1051C0.307543 9.1051 0.307544 9.1051 0.307544 9.1051C0.307544 9.1051 0.307544 9.1051 0.307544 9.1051C0.307544 9.1051 0.307544 9.1051 0.307544 9.1051C0.307544 9.1051 0.307544 9.1051 0.307544 9.1051C0.307544 9.1051 0.307544 9.1051 0.307544 9.1051C0.307544 9.1051 0.307544 9.1051 0.307544 9.1051C0.307544 9.1051 0.307544 9.1051 0.307545 9.1051C0.307545 9.1051 0.307545 9.1051 0.307545 9.1051C0.307545 9.1051 0.307545 9.1051 0.307545 9.1051C0.307545 9.1051 0.307545 9.1051 0.307545 9.1051C0.307545 9.1051 0.307545 9.1051 0.307545 9.1051C0.307545 9.1051 0.307545 9.1051 0.307545 9.1051C0.307545 9.1051 0.307545 9.1051 0.307546 9.1051C0.307546 9.1051 0.307546 9.1051 0.307546 9.1051C0.307546 9.1051 0.307546 9.1051 0.307546 9.1051C0.307546 9.1051 0.307546 9.1051 0.307546 9.1051C0.307546 9.1051 0.307546 9.1051 0.307546 9.1051C0.307546 9.1051 0.307546 9.1051 0.307546 9.1051C0.307546 9.1051 0.307546 9.1051 0.307547 9.1051C0.307547 9.1051 0.307547 9.1051 0.307547 9.1051C0.307547 9.1051 0.307547 9.1051 0.307547 9.1051C0.307547 9.1051 0.307547 9.1051 0.307547 9.1051C0.307547 9.1051 0.307547 9.1051 0.307547 9.1051C0.307547 9.1051 0.307547 9.1051 0.307547 9.1051C0.307547 9.1051 0.307547 9.1051 0.307548 9.1051C0.307548 9.1051 0.307548 9.1051 0.307548 9.1051C0.307548 9.1051 0.307548 9.1051 0.307548 9.1051C0.307548 9.1051 0.307548 9.1051 0.307548 9.1051C0.307548 9.1051 0.307548 9.1051 0.307548 9.1051C0.307548 9.1051 0.307548 9.1051 0.307548 9.1051C0.307548 9.1051 0.307548 9.1051 0.307549 9.1051C0.307549 9.1051 0.307549 9.1051 0.307549 9.1051C0.307549 9.1051 0.307549 9.1051 0.307549 9.1051C0.307549 9.1051 0.307549 9.1051 0.307549 9.1051C0.307549 9.1051 0.307549 9.1051 0.307549 9.1051C0.307549 9.1051 0.307549 9.1051 0.307549 9.1051C0.307549 9.1051 0.307549 9.1051 0.30755 9.1051C0.30755 9.1051 0.30755 9.1051 0.30755 9.1051C0.30755 9.1051 0.30755 9.1051 0.30755 9.1051C0.30755 9.1051 0.30755 9.1051 0.30755 9.1051C0.30755 9.1051 0.30755 9.1051 0.30755 9.1051C0.30755 9.1051 0.30755 9.1051 0.30755 9.1051C0.30755 9.1051 0.30755 9.1051 0.307551 9.1051C0.307551 9.1051 0.307551 9.1051 0.307551 9.1051C0.307551 9.1051 0.307551 9.1051 0.307551 9.1051C0.307551 9.1051 0.307551 9.1051 0.307551 9.1051C0.307551 9.1051 0.307551 9.1051 0.307551 9.1051C0.307551 9.1051 0.307551 9.1051 0.307551 9.1051C0.307551 9.1051 0.307551 9.1051 0.307552 9.1051C0.307552 9.1051 0.307552 9.1051 0.307552 9.1051C0.307552 9.1051 0.307552 9.1051 0.307552 9.1051C0.307552 9.1051 0.307552 9.1051 0.307552 9.1051C0.307552 9.1051 0.307552 9.1051 0.307552 9.1051C0.307552 9.1051 0.307552 9.1051 0.307552 9.10511C0.307552 9.10511 0.307552 9.10511 0.307553 9.10511C0.307553 9.10511 0.307553 9.10511 0.307553 9.10511C0.307553 9.10511 0.307553 9.10511 0.307553 9.10511C0.307553 9.10511 0.307553 9.10511 0.307553 9.10511C0.307553 9.10511 0.307553 9.10511 0.307553 9.10511C0.307553 9.10511 0.307553 9.10511 0.307553 9.10511C0.307553 9.10511 0.307553 9.10511 0.307554 9.10511C0.307554 9.10511 0.307554 9.10511 0.307554 9.10511C0.307554 9.10511 0.307554 9.10511 0.307554 9.10511C0.307554 9.10511 0.307554 9.10511 0.307554 9.10511C0.307554 9.10511 0.307554 9.10511 0.307554 9.10511C0.307554 9.10511 0.307554 9.10511 0.307554 9.10511C0.307554 9.10511 0.307554 9.10511 0.307555 9.10511C0.307555 9.10511 0.307555 9.10511 0.307555 9.10511C0.307555 9.10511 0.307555 9.10511 0.307555 9.10511C0.307555 9.10511 0.307555 9.10511 0.307555 9.10511C0.307555 9.10511 0.307555 9.10511 0.307555 9.10511C0.307555 9.10511 0.307555 9.10511 0.307555 9.10511C0.307555 9.10511 0.307555 9.10511 0.307556 9.10511C0.307556 9.10511 0.307556 9.10511 0.307556 9.10511C0.307556 9.10511 0.307556 9.10511 0.307556 9.10511C0.307556 9.10511 0.307556 9.10511 0.307556 9.10511C0.307556 9.10511 0.307556 9.10511 0.307556 9.10511C0.307556 9.10511 0.307556 9.10511 0.307556 9.10511C0.307556 9.10511 0.307556 9.10511 0.307557 9.10511C0.307557 9.10511 0.307557 9.10511 0.307557 9.10511C0.307557 9.10511 0.307557 9.10511 0.307557 9.10511C0.307557 9.10511 0.307557 9.10511 0.307557 9.10511C0.307557 9.10511 0.307557 9.10511 0.307557 9.10511C0.307557 9.10511 0.307557 9.10511 0.307557 9.10511C0.307557 9.10511 0.307557 9.10511 0.307558 9.10511C0.307558 9.10511 0.307558 9.10511 0.307558 9.10511C0.307558 9.10511 0.307558 9.10511 0.307558 9.10511C0.307558 9.10511 0.307558 9.10511 0.307558 9.10511C0.307558 9.10511 0.307558 9.10511 0.307558 9.10511C0.307558 9.10511 0.307558 9.10511 0.307558 9.10511C0.307558 9.10511 0.307558 9.10511 0.307559 9.10511C0.307559 9.10511 0.307559 9.10511 0.307559 9.10511C0.307559 9.10511 0.307559 9.10511 0.307559 9.10511C0.307559 9.10511 0.307559 9.10511 0.307559 9.10511C0.307559 9.10511 0.307559 9.10511 0.307559 9.10511C0.307559 9.10511 0.307559 9.10511 0.307559 9.10511C0.307559 9.10511 0.307559 9.10511 0.30756 9.10511C0.30756 9.10511 0.30756 9.10511 0.30756 9.10511C0.30756 9.10511 0.30756 9.10511 0.30756 9.10511C0.30756 9.10511 0.30756 9.10511 0.30756 9.10511C0.30756 9.10511 0.30756 9.10511 0.30756 9.10511C0.30756 9.10511 0.30756 9.10511 0.30756 9.10511C0.30756 9.10511 0.30756 9.10511 0.307561 9.10511C0.307561 9.10511 0.307561 9.10511 0.307561 9.10511C0.307561 9.10511 0.307561 9.10511 0.307561 9.10511C0.307561 9.10511 0.307561 9.10511 0.307561 9.10511C0.307561 9.10511 0.307561 9.10511 0.307561 9.10511C0.307561 9.10511 0.307561 9.10511 0.307561 9.10511C0.307561 9.10511 0.307561 9.10511 0.307562 9.10511C0.307562 9.10511 0.307562 9.10511 0.307562 9.10511C0.307562 9.10511 0.307562 9.10511 0.307562 9.10511C0.307562 9.10511 0.307562 9.10511 0.307562 9.10511C0.307562 9.10511 0.307562 9.10511 0.307562 9.10511C0.307562 9.10511 0.307562 9.10511 0.307562 9.10511C0.307562 9.10511 0.307562 9.10511 0.307563 9.10511C0.307563 9.10511 0.307563 9.10511 0.307563 9.10511C0.307563 9.10512 0.307563 9.10512 0.307563 9.10512C0.307563 9.10512 0.307563 9.10512 0.307563 9.10512C0.307563 9.10512 0.307563 9.10512 0.307563 9.10512C0.307563 9.10512 0.307563 9.10512 0.307563 9.10512C0.307563 9.10512 0.307563 9.10512 0.307564 9.10512C0.307564 9.10512 0.307564 9.10512 0.307564 9.10512C0.307564 9.10512 0.307564 9.10512 0.307564 9.10512C0.307564 9.10512 0.307564 9.10512 0.307564 9.10512C0.307564 9.10512 0.307564 9.10512 0.307564 9.10512C0.307564 9.10512 0.307564 9.10512 0.307564 9.10512C0.307564 9.10512 0.307564 9.10512 0.307564 9.10512C0.307565 9.10512 0.307565 9.10512 0.307565 9.10512C0.307565 9.10512 0.307565 9.10512 0.307565 9.10512C0.307565 9.10512 0.307565 9.10512 0.307565 9.10512C0.307565 9.10512 0.307565 9.10512 0.307565 9.10512C0.307565 9.10512 0.307565 9.10512 0.307565 9.10512C0.307565 9.10512 0.307565 9.10512 0.307566 9.10512C0.307566 9.10512 0.307566 9.10512 0.307566 9.10512C0.307566 9.10512 0.307566 9.10512 0.307566 9.10512C0.307566 9.10512 0.307566 9.10512 0.307566 9.10512C0.307566 9.10512 0.307566 9.10512 0.307566 9.10512C0.307566 9.10512 0.307566 9.10512 0.307566 9.10512C0.307566 9.10512 0.307566 9.10512 0.307566 9.10512C0.307567 9.10512 0.307567 9.10512 0.307567 9.10512C0.307567 9.10512 0.307567 9.10512 0.307567 9.10512C0.307567 9.10512 0.307567 9.10512 0.307567 9.10512C0.307567 9.10512 0.307567 9.10512 0.307567 9.10512C0.307567 9.10512 0.307567 9.10512 0.307567 9.10512C0.307567 9.10512 0.307567 9.10512 0.307568 9.10512C0.307568 9.10512 0.307568 9.10512 0.307568 9.10512C0.307568 9.10512 0.307568 9.10512 0.307568 9.10512C0.307568 9.10512 0.307568 9.10512 0.307568 9.10512C0.307568 9.10512 0.307568 9.10512 0.307568 9.10512C0.307568 9.10512 0.307568 9.10512 0.307568 9.10512C0.307568 9.10512 0.307568 9.10512 0.307568 9.10512C0.307569 9.10512 0.307569 9.10512 0.307569 9.10512C0.307569 9.10512 0.307569 9.10512 0.307569 9.10512C0.307569 9.10512 0.307569 9.10512 0.307569 9.10512C0.307569 9.10512 0.307569 9.10512 0.307569 9.10512C0.307569 9.10512 0.307569 9.10512 0.307569 9.10512C0.307569 9.10512 0.307569 9.10512 0.30757 9.10512C0.30757 9.10512 0.30757 9.10512 0.30757 9.10512C0.30757 9.10512 0.30757 9.10512 0.30757 9.10512C0.30757 9.10512 0.30757 9.10512 0.30757 9.10512C0.30757 9.10512 0.30757 9.10512 0.30757 9.10512C0.30757 9.10512 0.30757 9.10512 0.30757 9.10512C0.30757 9.10512 0.30757 9.10512 0.30757 9.10512C0.307571 9.10512 0.307571 9.10512 0.307571 9.10512C0.307571 9.10512 0.307571 9.10512 0.307571 9.10512C0.307571 9.10512 0.307571 9.10512 0.307571 9.10512C0.307571 9.10512 0.307571 9.10512 0.307571 9.10512C0.307571 9.10512 0.307571 9.10512 0.307571 9.10512C0.307571 9.10512 0.307571 9.10512 0.307572 9.10512C0.307572 9.10512 0.307572 9.10512 0.307572 9.10512C0.307572 9.10512 0.307572 9.10512 0.307572 9.10512C0.307572 9.10512 0.307572 9.10512 0.307572 9.10512C0.307572 9.10512 0.307572 9.10512 0.307572 9.10512C0.307572 9.10513 0.307572 9.10513 0.307572 9.10513C0.307572 9.10513 0.307572 9.10513 0.307572 9.10513C0.307573 9.10513 0.307573 9.10513 0.307573 9.10513C0.307573 9.10513 0.307573 9.10513 0.307573 9.10513C0.307573 9.10513 0.307573 9.10513 0.307573 9.10513C0.307573 9.10513 0.307573 9.10513 0.307573 9.10513C0.307573 9.10513 0.307573 9.10513 0.307573 9.10513C0.307573 9.10513 0.307573 9.10513 0.307573 9.10513C0.307574 9.10513 0.307574 9.10513 0.307574 9.10513C0.307574 9.10513 0.307574 9.10513 0.307574 9.10513C0.307574 9.10513 0.307574 9.10513 0.307574 9.10513C0.307574 9.10513 0.307574 9.10513 0.307574 9.10513C0.307574 9.10513 0.307574 9.10513 0.307574 9.10513C0.307574 9.10513 0.307574 9.10513 0.307574 9.10513C0.307575 9.10513 0.307575 9.10513 0.307575 9.10513C0.307575 9.10513 0.307575 9.10513 0.307575 9.10513C0.307575 9.10513 0.307575 9.10513 0.307575 9.10513C0.307575 9.10513 0.307575 9.10513 0.307575 9.10513C0.307575 9.10513 0.307575 9.10513 0.307575 9.10513C0.307575 9.10513 0.307575 9.10513 0.307575 9.10513C0.307576 9.10513 0.307576 9.10513 0.307576 9.10513C0.307576 9.10513 0.307576 9.10513 0.307576 9.10513C0.307576 9.10513 0.307576 9.10513 0.307576 9.10513C0.307576 9.10513 0.307576 9.10513 0.307576 9.10513C0.307576 9.10513 0.307576 9.10513 0.307576 9.10513C0.307576 9.10513 0.307576 9.10513 0.307576 9.10513C0.307577 9.10513 0.307577 9.10513 0.307577 9.10513C0.307577 9.10513 0.307577 9.10513 0.307577 9.10513C0.307577 9.10513 0.307577 9.10513 0.307577 9.10513C0.307577 9.10513 0.307577 9.10513 0.307577 9.10513C0.307577 9.10513 0.307577 9.10513 0.307577 9.10513C0.307577 9.10513 0.307577 9.10513 0.307577 9.10513C0.307578 9.10513 0.307578 9.10513 0.307578 9.10513C0.307578 9.10513 0.307578 9.10513 0.307578 9.10513C0.307578 9.10513 0.307578 9.10513 0.307578 9.10513C0.307578 9.10513 0.307578 9.10513 0.307578 9.10513C0.307578 9.10513 0.307578 9.10513 0.307578 9.10513C0.307578 9.10513 0.307578 9.10513 0.307578 9.10513C0.307579 9.10513 0.307579 9.10513 0.307579 9.10513C0.307579 9.10513 0.307579 9.10513 0.307579 9.10513L2.43776 6.99271C2.43776 6.99271 2.43776 6.99271 2.43776 6.99271C2.43776 6.99271 2.43776 6.99271 2.43776 6.9927C2.43776 6.9927 2.43776 6.9927 2.43776 6.9927C2.43776 6.9927 2.43776 6.9927 2.43776 6.9927H2.43776C2.43776 6.9927 2.43776 6.9927 2.43775 6.9927V6.9927H2.43775C2.43775 6.9927 2.43775 6.9927 2.43775 6.9927V6.9927C2.43775 6.9927 2.43775 6.9927 2.43775 6.9927C2.43775 6.9927 2.43775 6.9927 2.43775 6.9927C2.43775 6.9927 2.43775 6.9927 2.43775 6.9927C2.43775 6.9927 2.43775 6.9927 2.43775 6.9927H2.43775C2.43775 6.9927 2.43775 6.9927 2.43775 6.9927C2.43775 6.9927 2.43775 6.9927 2.43775 6.9927C2.43775 6.9927 2.43775 6.9927 2.43775 6.9927C2.43775 6.9927 2.43775 6.9927 2.43775 6.9927C2.43775 6.9927 2.43775 6.9927 2.43775 6.9927C2.43775 6.9927 2.43775 6.9927 2.43775 6.9927C2.43775 6.9927 2.43775 6.9927 2.43775 6.9927H2.43775C2.43775 6.9927 2.43775 6.9927 2.43775 6.9927H2.43775C2.43775 6.9927 2.43775 6.9927 2.43775 6.9927C2.43775 6.9927 2.43775 6.9927 2.43775 6.9927H2.43775C2.43775 6.9927 2.43775 6.9927 2.43775 6.9927C2.43775 6.9927 2.43775 6.9927 2.43775 6.9927C2.43775 6.9927 2.43775 6.9927 2.43775 6.9927C2.43775 6.9927 2.43775 6.9927 2.43775 6.9927C2.43775 6.9927 2.43775 6.9927 2.43775 6.9927C2.43775 6.9927 2.43775 6.9927 2.43775 6.9927C2.43775 6.9927 2.43775 6.9927 2.43775 6.9927C2.43775 6.9927 2.43775 6.9927 2.43775 6.9927C2.43775 6.9927 2.43775 6.9927 2.43775 6.9927C2.43775 6.9927 2.43775 6.9927 2.43775 6.9927C2.43775 6.9927 2.43775 6.9927 2.43775 6.9927C2.43775 6.9927 2.43775 6.9927 2.43775 6.9927H2.43775C2.43775 6.9927 2.43775 6.9927 2.43775 6.9927H2.43775C2.43775 6.9927 2.43775 6.9927 2.43775 6.9927C2.43775 6.9927 2.43775 6.9927 2.43775 6.9927C2.43775 6.9927 2.43775 6.9927 2.43775 6.9927C2.43775 6.9927 2.43775 6.9927 2.43775 6.9927C2.43775 6.9927 2.43775 6.9927 2.43775 6.9927C2.43775 6.9927 2.43775 6.9927 2.43775 6.9927C2.43775 6.9927 2.43775 6.9927 2.43775 6.9927L2.43775 6.99269C2.43775 6.99269 2.43775 6.99269 2.43775 6.99269L2.43775 6.99269C2.43775 6.99269 2.43775 6.99269 2.43775 6.99269C2.43774 6.99269 2.43774 6.99269 2.43774 6.99269H2.43774C2.43774 6.99269 2.43774 6.99269 2.43774 6.99269H2.43774C2.43774 6.99269 2.43774 6.99269 2.43774 6.99269H2.43774C2.43774 6.99269 2.43774 6.99269 2.43774 6.99269C2.43774 6.99269 2.43774 6.99269 2.43774 6.99269C2.43774 6.99269 2.43774 6.99269 2.43774 6.99269C2.43774 6.99269 2.43774 6.99269 2.43774 6.99269L2.43774 6.99269C2.43774 6.99269 2.43774 6.99269 2.43774 6.99269L2.43774 6.99269C2.43774 6.99269 2.43774 6.99269 2.43774 6.99269C2.43774 6.99269 2.43774 6.99269 2.43774 6.99269C2.43774 6.99269 2.43774 6.99269 2.43774 6.99269C2.43774 6.99269 2.43774 6.99269 2.43774 6.99269H2.43774C2.43774 6.99269 2.43774 6.99269 2.43774 6.99269C2.43774 6.99269 2.43774 6.99269 2.43774 6.99269H2.43774C2.43774 6.99269 2.43774 6.99269 2.43774 6.99269H2.43774C2.43774 6.99269 2.43774 6.99269 2.43774 6.99269C2.43774 6.99269 2.43774 6.99269 2.43774 6.99269L2.43774 6.99269C2.43774 6.99269 2.43774 6.99269 2.43774 6.99269C2.43774 6.99269 2.43774 6.99269 2.43774 6.99269C2.43774 6.99269 2.43774 6.99269 2.43774 6.99269C2.43774 6.99269 2.43774 6.99269 2.43774 6.99269C2.43774 6.99269 2.43774 6.99269 2.43774 6.99269C2.43774 6.99269 2.43774 6.99269 2.43774 6.99269C2.43774 6.99269 2.43774 6.99269 2.43774 6.99269C2.43774 6.99269 2.43774 6.99269 2.43774 6.99269C2.43774 6.99269 2.43774 6.99269 2.43774 6.99269C2.43774 6.99269 2.43774 6.99269 2.43774 6.99269H2.43774C2.43774 6.99269 2.43774 6.99269 2.43774 6.99269H2.43774C2.43774 6.99269 2.43774 6.99269 2.43774 6.99269C2.43774 6.99269 2.43774 6.99269 2.43774 6.99269C2.43774 6.99268 2.43774 6.99268 2.43774 6.99268C2.43774 6.99268 2.43774 6.99268 2.43774 6.99268C2.43774 6.99268 2.43774 6.99268 2.43774 6.99268C2.43774 6.99268 2.43774 6.99268 2.43774 6.99268C2.43774 6.99268 2.43773 6.99268 2.43773 6.99268C2.43773 6.99268 2.43773 6.99268 2.43773 6.99268C2.43773 6.99268 2.43773 6.99268 2.43773 6.99268C2.43773 6.99268 2.43773 6.99268 2.43773 6.99268C2.43773 6.99268 2.43773 6.99268 2.43773 6.99268C2.43773 6.99268 2.43773 6.99268 2.43773 6.99268C2.43773 6.99268 2.43773 6.99268 2.43773 6.99268H2.43773V6.99268C2.43773 6.99268 2.43773 6.99268 2.43773 6.99268H2.43773C2.43773 6.99268 2.43773 6.99268 2.43773 6.99268H2.43773C2.43773 6.99268 2.43773 6.99268 2.43773 6.99268C2.43773 6.99268 2.43773 6.99268 2.43773 6.99268C2.43773 6.99268 2.43773 6.99268 2.43773 6.99268C2.43773 6.99268 2.43773 6.99268 2.43773 6.99268H2.43773C2.43773 6.99268 2.43773 6.99268 2.43773 6.99268C2.43773 6.99268 2.43773 6.99268 2.43773 6.99268H2.43773C2.43773 6.99268 2.43773 6.99268 2.43773 6.99268V6.99268C2.43773 6.99268 2.43773 6.99268 2.43773 6.99268C2.43773 6.99268 2.43773 6.99268 2.43773 6.99268V6.99268C2.43773 6.99268 2.43773 6.99268 2.43773 6.99268H2.43773C2.43773 6.99268 2.43773 6.99268 2.43773 6.99268C2.43773 6.99268 2.43773 6.99268 2.43773 6.99268H2.43773C2.43773 6.99268 2.43773 6.99268 2.43773 6.99268C2.43773 6.99268 2.43773 6.99268 2.43773 6.99268C2.43773 6.99268 2.43773 6.99268 2.43773 6.99268C2.43773 6.99268 2.43773 6.99268 2.43773 6.99268H2.43773C2.43773 6.99268 2.43773 6.99268 2.43773 6.99268H2.43773C2.43773 6.99268 2.43773 6.99268 2.43773 6.99268V6.99268H2.43773C2.43773 6.99268 2.43773 6.99268 2.43773 6.99268V6.99268C2.43773 6.99268 2.43773 6.99268 2.43773 6.99268H2.43773C2.43773 6.99268 2.43773 6.99268 2.43773 6.99268C2.43773 6.99268 2.43773 6.99268 2.43773 6.99268H2.43773C2.43773 6.99267 2.43773 6.99267 2.43773 6.99267C2.43773 6.99267 2.43773 6.99267 2.43773 6.99267C2.43773 6.99267 2.43773 6.99267 2.43773 6.99267C2.43773 6.99267 2.43773 6.99267 2.43773 6.99267C2.43773 6.99267 2.43773 6.99267 2.43772 6.99267C2.43772 6.99267 2.43772 6.99267 2.43772 6.99267H2.43772C2.43772 6.99267 2.43772 6.99267 2.43772 6.99267V6.99267H2.43772C2.43772 6.99267 2.43772 6.99267 2.43772 6.99267C2.43772 6.99267 2.43772 6.99267 2.43772 6.99267C2.43772 6.99267 2.43772 6.99267 2.43772 6.99267C2.43772 6.99267 2.43772 6.99267 2.43772 6.99267C2.43772 6.99267 2.43772 6.99267 2.43772 6.99267C2.43772 6.99267 2.43772 6.99267 2.43772 6.99267C2.43772 6.99267 2.43772 6.99267 2.43772 6.99267C2.43772 6.99267 2.43772 6.99267 2.43772 6.99267C2.43772 6.99267 2.43772 6.99267 2.43772 6.99267C2.43772 6.99267 2.43772 6.99267 2.43772 6.99267L2.43772 6.99267C2.43772 6.99267 2.43772 6.99267 2.43772 6.99267C2.43772 6.99267 2.43772 6.99267 2.43772 6.99267H2.43772C2.43772 6.99267 2.43772 6.99267 2.43772 6.99267H2.43772C2.43772 6.99267 2.43772 6.99267 2.43772 6.99267C2.43772 6.99267 2.43772 6.99267 2.43772 6.99267H2.43772C2.43772 6.99267 2.43772 6.99267 2.43772 6.99267C2.43772 6.99267 2.43772 6.99267 2.43772 6.99267C2.43772 6.99267 2.43772 6.99267 2.43772 6.99267C2.43772 6.99267 2.43772 6.99267 2.43772 6.99267C2.43772 6.99267 2.43772 6.99267 2.43772 6.99267C2.43772 6.99267 2.43772 6.99267 2.43772 6.99267C2.43772 6.99267 2.43772 6.99267 2.43772 6.99267L2.43772 6.99267C2.43772 6.99267 2.43772 6.99267 2.43772 6.99267C2.43772 6.99267 2.43772 6.99267 2.43772 6.99267C2.43772 6.99267 2.43772 6.99267 2.43772 6.99267C2.43772 6.99267 2.43772 6.99267 2.43772 6.99267H2.43772C2.43772 6.99267 2.43772 6.99267 2.43772 6.99267H2.43772C2.43772 6.99267 2.43772 6.99267 2.43772 6.99267C2.43772 6.99267 2.43772 6.99267 2.43772 6.99267C2.43772 6.99267 2.43772 6.99267 2.43772 6.99266C2.43772 6.99266 2.43772 6.99266 2.43772 6.99266L2.43772 6.99266C2.43772 6.99266 2.43772 6.99266 2.43772 6.99266L2.43772 6.99266C2.43772 6.99266 2.43772 6.99266 2.43771 6.99266C2.43771 6.99266 2.43771 6.99266 2.43771 6.99266C2.43771 6.99266 2.43771 6.99266 2.43771 6.99266C2.43771 6.99266 2.43771 6.99266 2.43771 6.99266H2.43771C2.43771 6.99266 2.43771 6.99266 2.43771 6.99266H2.43771C2.43771 6.99266 2.43771 6.99266 2.43771 6.99266H2.43771C2.43771 6.99266 2.43771 6.99266 2.43771 6.99266C2.43771 6.99266 2.43771 6.99266 2.43771 6.99266C2.43771 6.99266 2.43771 6.99266 2.43771 6.99266C2.43771 6.99266 2.43771 6.99266 2.43771 6.99266L2.43771 6.99266C2.43771 6.99266 2.43771 6.99266 2.43771 6.99266C2.43771 6.99266 2.43771 6.99266 2.43771 6.99266C2.43771 6.99266 2.43771 6.99266 2.43771 6.99266C2.43771 6.99266 2.43771 6.99266 2.43771 6.99266C2.43771 6.99266 2.43771 6.99266 2.43771 6.99266C2.43771 6.99266 2.43771 6.99266 2.43771 6.99266C2.43771 6.99266 2.43771 6.99266 2.43771 6.99266H2.43771C2.43771 6.99266 2.43771 6.99266 2.43771 6.99266C2.43771 6.99266 2.43771 6.99266 2.43771 6.99266H2.43771C2.43771 6.99266 2.43771 6.99266 2.43771 6.99266H2.43771C2.43771 6.99266 2.43771 6.99266 2.43771 6.99266C2.43771 6.99266 2.43771 6.99266 2.43771 6.99266C2.43771 6.99266 2.43771 6.99266 2.43771 6.99266C2.43771 6.99266 2.43771 6.99266 2.43771 6.99266C2.43771 6.99266 2.43771 6.99266 2.43771 6.99266C2.43771 6.99266 2.43771 6.99266 2.43771 6.99266C2.43771 6.99266 2.43771 6.99266 2.43771 6.99266H2.43771C2.43771 6.99266 2.43771 6.99266 2.43771 6.99266C2.43771 6.99266 2.43771 6.99266 2.43771 6.99266C2.43771 6.99266 2.43771 6.99266 2.43771 6.99266C2.43771 6.99266 2.43771 6.99266 2.43771 6.99266C2.43771 6.99266 2.43771 6.99266 2.43771 6.99266C2.43771 6.99266 2.43771 6.99266 2.43771 6.99266H2.43771C2.43771 6.99266 2.43771 6.99265 2.43771 6.99265H2.43771C2.43771 6.99265 2.43771 6.99265 2.43771 6.99265C2.43771 6.99265 2.43771 6.99265 2.43771 6.99265C2.43771 6.99265 2.43771 6.99265 2.43771 6.99265C2.4377 6.99265 2.4377 6.99265 2.4377 6.99265C2.4377 6.99265 2.4377 6.99265 2.4377 6.99265C2.4377 6.99265 2.4377 6.99265 2.4377 6.99265H2.4377C2.4377 6.99265 2.4377 6.99265 2.4377 6.99265C2.4377 6.99265 2.4377 6.99265 2.4377 6.99265C2.4377 6.99265 2.4377 6.99265 2.4377 6.99265C2.4377 6.99265 2.4377 6.99265 2.4377 6.99265V6.99265C2.4377 6.99265 2.4377 6.99265 2.4377 6.99265H2.4377V6.99265C2.4377 6.99265 2.4377 6.99265 2.4377 6.99265H2.4377C2.4377 6.99265 2.4377 6.99265 2.4377 6.99265H2.4377C2.4377 6.99265 2.4377 6.99265 2.4377 6.99265C2.4377 6.99265 2.4377 6.99265 2.4377 6.99265C2.4377 6.99265 2.4377 6.99265 2.4377 6.99265C2.4377 6.99265 2.4377 6.99265 2.4377 6.99265H2.4377C2.4377 6.99265 2.4377 6.99265 2.4377 6.99265V6.99265H2.4377C2.4377 6.99265 2.4377 6.99265 2.4377 6.99265V6.99265C2.4377 6.99265 2.4377 6.99265 2.4377 6.99265C2.4377 6.99265 2.4377 6.99265 2.4377 6.99265V6.99265C2.4377 6.99265 2.4377 6.99265 2.4377 6.99265H2.4377C2.4377 6.99265 2.4377 6.99265 2.4377 6.99265C2.4377 6.99265 2.4377 6.99265 2.4377 6.99265H2.4377C2.4377 6.99265 2.4377 6.99265 2.4377 6.99265C2.4377 6.99265 2.4377 6.99265 2.4377 6.99265C2.4377 6.99265 2.4377 6.99265 2.4377 6.99265C2.4377 6.99265 2.4377 6.99265 2.4377 6.99265H2.4377C2.4377 6.99265 2.4377 6.99265 2.4377 6.99265H2.4377C2.4377 6.99265 2.4377 6.99265 2.4377 6.99265V6.99265H2.4377C2.4377 6.99265 2.4377 6.99265 2.4377 6.99265C2.4377 6.99264 2.4377 6.99264 2.4377 6.99264C2.4377 6.99264 2.4377 6.99264 2.4377 6.99264H2.4377C2.4377 6.99264 2.4377 6.99264 2.4377 6.99264C2.4377 6.99264 2.4377 6.99264 2.4377 6.99264C2.4377 6.99264 2.4377 6.99264 2.4377 6.99264C2.4377 6.99264 2.4377 6.99264 2.4377 6.99264C2.4377 6.99264 2.43769 6.99264 2.43769 6.99264C2.43769 6.99264 2.43769 6.99264 2.43769 6.99264C2.43769 6.99264 2.43769 6.99264 2.43769 6.99264C2.43769 6.99264 2.43769 6.99264 2.43769 6.99264C2.43769 6.99264 2.43769 6.99264 2.43769 6.99264H2.43769C2.43769 6.99264 2.43769 6.99264 2.43769 6.99264H2.43769C2.43769 6.99264 2.43769 6.99264 2.43769 6.99264C2.43769 6.99264 2.43769 6.99264 2.43769 6.99264C2.43769 6.99264 2.43769 6.99264 2.43769 6.99264C2.43769 6.99264 2.43769 6.99264 2.43769 6.99264C2.43769 6.99264 2.43769 6.99264 2.43769 6.99264C2.43769 6.99264 2.43769 6.99264 2.43769 6.99264C2.43769 6.99264 2.43769 6.99264 2.43769 6.99264C2.43769 6.99264 2.43769 6.99264 2.43769 6.99264C2.43769 6.99264 2.43769 6.99264 2.43769 6.99264C2.43769 6.99264 2.43769 6.99264 2.43769 6.99264L2.43769 6.99264C2.43769 6.99264 2.43769 6.99264 2.43769 6.99264C2.43769 6.99264 2.43769 6.99264 2.43769 6.99264H2.43769C2.43769 6.99264 2.43769 6.99264 2.43769 6.99264H2.43769C2.43769 6.99264 2.43769 6.99264 2.43769 6.99264C2.43769 6.99264 2.43769 6.99264 2.43769 6.99264H2.43769C2.43769 6.99264 2.43769 6.99264 2.43769 6.99264C2.43769 6.99264 2.43769 6.99264 2.43769 6.99264C2.43769 6.99264 2.43769 6.99264 2.43769 6.99264C2.43769 6.99264 2.43769 6.99264 2.43769 6.99264L2.43769 6.99264C2.43769 6.99264 2.43769 6.99264 2.43769 6.99264L2.43769 6.99264C2.43769 6.99264 2.43769 6.99264 2.43769 6.99264C2.43769 6.99264 2.43769 6.99264 2.43769 6.99264C2.43769 6.99264 2.43769 6.99264 2.43769 6.99264C2.43769 6.99264 2.43769 6.99264 2.43769 6.99264H2.43769C2.43769 6.99264 2.43769 6.99264 2.43769 6.99263C2.43769 6.99263 2.43769 6.99263 2.43769 6.99263H2.43769C2.43769 6.99263 2.43769 6.99263 2.43769 6.99263C2.43769 6.99263 2.43769 6.99263 2.43769 6.99263C2.43769 6.99263 2.43769 6.99263 2.43769 6.99263C2.43769 6.99263 2.43769 6.99263 2.43769 6.99263L2.43768 6.99263C2.43768 6.99263 2.43768 6.99263 2.43768 6.99263L2.43768 6.99263C2.43768 6.99263 2.43768 6.99263 2.43768 6.99263C2.43768 6.99263 2.43768 6.99263 2.43768 6.99263C2.43768 6.99263 2.43768 6.99263 2.43768 6.99263C2.43768 6.99263 2.43768 6.99263 2.43768 6.99263C2.43768 6.99263 2.43768 6.99263 2.43768 6.99263C2.43768 6.99263 2.43768 6.99263 2.43768 6.99263C2.43768 6.99263 2.43768 6.99263 2.43768 6.99263H2.43768C2.43768 6.99263 2.43768 6.99263 2.43768 6.99263H2.43768C2.43768 6.99263 2.43768 6.99263 2.43768 6.99263C2.43768 6.99263 2.43768 6.99263 2.43768 6.99263C2.43768 6.99263 2.43768 6.99263 2.43768 6.99263C2.43768 6.99263 2.43768 6.99263 2.43768 6.99263C2.43768 6.99263 2.43768 6.99263 2.43768 6.99263C2.43768 6.99263 2.43768 6.99263 2.43768 6.99263C2.43768 6.99263 2.43768 6.99263 2.43768 6.99263C2.43768 6.99263 2.43768 6.99263 2.43768 6.99263C2.43768 6.99263 2.43768 6.99263 2.43768 6.99263C2.43768 6.99263 2.43768 6.99263 2.43768 6.99263C2.43768 6.99263 2.43768 6.99263 2.43768 6.99263C2.43768 6.99263 2.43768 6.99263 2.43768 6.99263C2.43768 6.99263 2.43768 6.99263 2.43768 6.99263H2.43768V6.99263C2.43768 6.99263 2.43768 6.99263 2.43768 6.99263H2.43768C2.43768 6.99263 2.43768 6.99263 2.43768 6.99263H2.43768C2.43768 6.99263 2.43768 6.99263 2.43768 6.99263C2.43768 6.99263 2.43768 6.99263 2.43768 6.99263C2.43768 6.99263 2.43768 6.99263 2.43768 6.99263C2.43768 6.99263 2.43768 6.99263 2.43768 6.99263C2.43768 6.99263 2.43768 6.99263 2.43768 6.99263C2.43768 6.99263 2.43768 6.99263 2.43768 6.99263C2.43768 6.99263 2.43768 6.99263 2.43768 6.99263H2.43768C2.43768 6.99263 2.43768 6.99263 2.43768 6.99263C2.43768 6.99263 2.43768 6.99263 2.43768 6.99262C2.43768 6.99262 2.43768 6.99262 2.43768 6.99262C2.43768 6.99262 2.43768 6.99262 2.43768 6.99262V6.99262C2.43768 6.99262 2.43768 6.99262 2.43768 6.99262H2.43768C2.43768 6.99262 2.43768 6.99262 2.43768 6.99262H2.43767C2.43767 6.99262 2.43767 6.99262 2.43767 6.99262C2.43767 6.99262 2.43767 6.99262 2.43767 6.99262C2.43767 6.99262 2.43767 6.99262 2.43767 6.99262C2.43767 6.99262 2.43767 6.99262 2.43767 6.99262H2.43767C2.43767 6.99262 2.43767 6.99262 2.43767 6.99262H2.43767C2.43767 6.99262 2.43767 6.99262 2.43767 6.99262V6.99262H2.43767C2.43767 6.99262 2.43767 6.99262 2.43767 6.99262V6.99262C2.43767 6.99262 2.43767 6.99262 2.43767 6.99262H2.43767C2.43767 6.99262 2.43767 6.99262 2.43767 6.99262C2.43767 6.99262 2.43767 6.99262 2.43767 6.99262H2.43767C2.43767 6.99262 2.43767 6.99262 2.43767 6.99262H2.43767L0.307494 9.10505ZM0.3087 0.323534C-2.1029 2.74985 -2.1029 6.67994 0.3087 9.10626L2.43647 6.99141C1.18784 5.73516 1.18784 3.69463 2.43647 2.43839L0.3087 0.323534Z" fill="#444444" mask="url(#path-1-inside-1)"/>
</svg>
