<svg width="16" height="16" viewBox="0 0 16 16" fill="none" xmlns="http://www.w3.org/2000/svg">
<path d="M6.97282 0.614156C7.40857 -0.204717 8.59142 -0.204719 9.02718 0.614154L10.6916 3.742C10.8597 4.05779 11.166 4.27843 11.5208 4.3393L15.0355 4.94225C15.9556 5.1001 16.3212 6.21547 15.6703 6.87941L13.1843 9.41547C12.9334 9.67151 12.8164 10.0285 12.8676 10.3819L13.3754 13.8824C13.5083 14.7988 12.5513 15.4882 11.7133 15.0796L8.51246 13.5192C8.1893 13.3616 7.8107 13.3616 7.48754 13.5192L4.28666 15.0796C3.44867 15.4882 2.49172 14.7988 2.62465 13.8824L3.13238 10.3819C3.18364 10.0285 3.06665 9.67151 2.81566 9.41547L0.329676 6.87941C-0.321157 6.21547 0.0443617 5.1001 0.964507 4.94225L4.47919 4.3393C4.83403 4.27843 5.14032 4.05779 5.30836 3.74201L6.97282 0.614156Z" fill="#95A0EB"/>
</svg>
