<svg width="115" height="14" viewBox="0 0 115 14" fill="none" xmlns="http://www.w3.org/2000/svg">
<path d="M0.118608 2.81818V13H1.58026V5.62713H1.67472L4.67756 12.9851H5.89062L8.89347 5.6321H8.98793V13H10.4496V2.81818H8.58523L5.34375 10.733H5.22443L1.98295 2.81818H0.118608ZM14.0431 13L14.9778 10.3054H18.9551L19.8848 13H21.5154L17.8514 2.81818H16.0765L12.4125 13H14.0431ZM15.4252 9.01278L16.9267 4.66761H17.0062L18.5076 9.01278H15.4252ZM29.8979 6.0348H31.4739C31.1309 4.05114 29.4355 2.67898 27.2381 2.67898C24.6032 2.67898 22.6792 4.66264 22.6792 7.91406C22.6792 11.1357 24.5485 13.1392 27.3077 13.1392C29.7786 13.1392 31.5435 11.5185 31.5435 8.94815V7.78977H27.5414V9.05753H30.057C30.0222 10.6982 28.9384 11.7372 27.3077 11.7372C25.513 11.7372 24.2054 10.38 24.2054 7.90412C24.2054 5.43821 25.5229 4.08097 27.248 4.08097C28.6003 4.08097 29.5151 4.8267 29.8979 6.0348ZM28.1976 0.232954C28.1976 0.735085 27.9192 1.17756 27.2232 1.17756C26.5172 1.17756 26.2537 0.730113 26.2537 0.232954H25.0357C25.0357 1.35156 25.8858 2.12216 27.2232 2.12216C28.5705 2.12216 29.4206 1.35156 29.4206 0.232954H28.1976ZM34.5392 13L35.4739 10.3054H39.4512L40.3809 13H42.0115L38.3475 2.81818H36.5726L32.9086 13H34.5392ZM35.9213 9.01278L37.4228 4.66761H37.5023L39.0037 9.01278H35.9213ZM43.7184 13H50.9968V11.6776H45.5977L50.9521 3.84233V2.81818H43.6737V4.14062H49.0728L43.7184 11.9759V13ZM54.2834 13L55.218 10.3054H59.1953L60.125 13H61.7557L58.0916 2.81818H56.3168L52.6527 13H54.2834ZM55.6655 9.01278L57.1669 4.66761H57.2464L58.7479 9.01278H55.6655ZM61.9015 2.81818L65.5953 9.00284V13H67.1266V9.00284L70.8205 2.81818H69.0755L66.4157 7.44673H66.3063L63.6465 2.81818H61.9015ZM72.592 13L73.5266 10.3054H77.5039L78.4336 13H80.0643L76.4002 2.81818H74.6254L70.9613 13H72.592ZM73.9741 9.01278L75.4755 4.66761H75.555L77.0565 9.01278H73.9741ZM86.2397 13H90.1424C92.5089 13 93.5778 11.8217 93.5778 10.2607C93.5778 8.68466 92.4741 7.79474 91.4648 7.74006V7.64062C92.3995 7.40199 93.18 6.76562 93.18 5.4929C93.18 3.98651 92.136 2.81818 89.9684 2.81818H86.2397V13ZM87.7759 11.6825V8.42116H90.0479C91.2809 8.42116 92.0515 9.21662 92.0515 10.1861C92.0515 11.0412 91.4698 11.6825 89.9933 11.6825H87.7759ZM87.7759 7.22301V4.12571H89.8739C91.092 4.12571 91.6737 4.76705 91.6737 5.61222C91.6737 6.59659 90.8683 7.22301 89.8342 7.22301H87.7759ZM96.7599 13L97.6946 10.3054H101.672L102.602 13H104.232L100.568 2.81818H98.7933L95.1293 13H96.7599ZM98.142 9.01278L99.6435 4.66761H99.723L101.224 9.01278H98.142ZM107.271 2.81818H105.492L108.718 7.90909L105.472 13H107.262L109.708 9.07244H109.787L112.233 13H114.023L110.831 7.90909L114.003 2.81818H112.223L109.787 6.80043H109.708L107.271 2.81818Z" fill="#6472B8"/>
</svg>
