<svg width="92" height="36" viewBox="0 0 92 36" fill="none" xmlns="http://www.w3.org/2000/svg">
<path d="M0 4C0 1.79086 1.79086 0 4 0H88C90.2091 0 92 1.79086 92 4V32C92 34.2091 90.2091 36 88 36H4C1.79086 36 0 34.2091 0 32V4Z" fill="#FFEBEB"/>
<path d="M15.7157 10.6891C18.0034 8.43698 21.7124 8.43698 24 10.6891C26.2876 8.43698 29.9966 8.43698 32.2843 10.6891C34.5719 12.9411 34.5719 16.5925 32.2843 18.8445L25.4031 25.6187C24.6247 26.3851 23.3753 26.3851 22.5969 25.6187L15.7157 18.8445C13.4281 16.5925 13.4281 12.9411 15.7157 10.6891Z" fill="#FF8C8C"/>
<path d="M40.6761 13.9119H43.8778V23H45.1108V13.9119H48.3125V12.8182H40.6761V13.9119ZM49.5133 23H50.6866V18.1676C50.6866 17.1335 51.502 16.3778 52.6156 16.3778C52.9288 16.3778 53.252 16.4375 53.3315 16.4574V15.2642C53.1973 15.2543 52.889 15.2443 52.715 15.2443C51.8002 15.2443 51.0048 15.7614 50.7264 16.517H50.6468V15.3636H49.5133V23ZM57.9416 23.1591C59.4927 23.1591 60.6262 22.3835 60.9842 21.2301L59.8507 20.9119C59.5524 21.7074 58.8613 22.1051 57.9416 22.1051C56.5645 22.1051 55.6149 21.2152 55.5602 19.5795H61.1035V19.0824C61.1035 16.2386 59.4132 15.2642 57.8223 15.2642C55.7541 15.2642 54.3819 16.8949 54.3819 19.2415C54.3819 21.5881 55.7342 23.1591 57.9416 23.1591ZM55.5602 18.5653C55.6397 17.3771 56.4799 16.3182 57.8223 16.3182C59.095 16.3182 59.9103 17.2727 59.9103 18.5653H55.5602ZM64.3116 18.4062C64.3116 17.0739 65.1369 16.3182 66.2605 16.3182C67.3493 16.3182 68.0105 17.0291 68.0105 18.2273V23H69.1838V18.1477C69.1838 16.1989 68.1447 15.2642 66.5985 15.2642C65.4451 15.2642 64.7292 15.7812 64.3713 16.5568H64.2718V15.3636H63.1383V23H64.3116V18.4062ZM74.4613 23.1591C75.9329 23.1591 76.43 22.2443 76.6886 21.8267H76.8278V23H77.9613V12.8182H76.788V16.5767H76.6886C76.43 16.179 75.9727 15.2642 74.4812 15.2642C72.5522 15.2642 71.2198 16.7955 71.2198 19.2017C71.2198 21.6278 72.5522 23.1591 74.4613 23.1591ZM74.6204 22.1051C73.1488 22.1051 72.3931 20.8125 72.3931 19.1818C72.3931 17.571 73.1289 16.3182 74.6204 16.3182C76.0522 16.3182 76.8079 17.4716 76.8079 19.1818C76.8079 20.9119 76.0323 22.1051 74.6204 22.1051Z" fill="#444444"/>
</svg>
