<svg width="18" height="20" viewBox="0 0 18 20" fill="none" xmlns="http://www.w3.org/2000/svg">
<path fill-rule="evenodd" clip-rule="evenodd" d="M8.01147 0.751685C8.61552 0.416105 9.35 0.416105 9.95404 0.751686L16.9368 4.63099C17.5717 4.98373 17.9655 5.65297 17.9655 6.37931V14.0449C17.9655 14.7712 17.5717 15.4404 16.9368 15.7932L9.95404 19.6725C9.35 20.0081 8.61552 20.0081 8.01147 19.6725L1.02871 15.7932C0.393784 15.4404 0 14.7712 0 14.0449V6.37931C0 5.65298 0.393783 4.98373 1.02871 4.63099L8.01147 0.751685ZM5.98411 3.21253L13.1825 7.21163L16.1811 5.54572L8.98276 1.54662L5.98411 3.21253ZM16.7989 6.53704L9.56605 10.5553V18.5535L16.7989 14.5352V6.53704ZM8.39946 18.5535V10.5553L1.16659 6.53704V14.5352L8.39946 18.5535ZM1.78438 5.54572L8.98276 9.54482L11.9814 7.8789L4.78303 3.8798L1.78438 5.54572Z" fill="white"/>
</svg>
