<svg xmlns="http://www.w3.org/2000/svg" width="19.508771973853754" height="21.754385986926877" style=""><rect id="backgroundrect" width="100%" height="100%" x="0" y="0" fill="none" stroke="none" class="" style=""/><g class="currentLayer" style=""><title>Layer 1</title><path d="M0,10 a1,1 0 0 0 1,1 h7.59 l-2.3,2.29 a1,1 0 0 0 0,1.42 a1,1 0 0 0 1.42,0 l4,-4 a1,1 0 0 0 0.21000000000000002,-0.33000000000000007 a1,1 0 0 0 0,-0.7600000000000001 a1,1 0 0 0 -0.21000000000000002,-0.33000000000000007 l-4,-4 a1,1 0 1 0 -1.42,1.42 L8.59,9 H1 A1,1 0 0 0 0,10 zM13,0 H3 A3,3 0 0 0 0,3 V6 A1,1 0 0 0 2,6 V3 A1,1 0 0 1 3,2 H13 a1,1 0 0 1 1,1 V17 a1,1 0 0 1 -1,1 H3 a1,1 0 0 1 -1,-1 V14 a1,1 0 0 0 -2,0 v3 a3,3 0 0 0 3,3 H13 a3,3 0 0 0 3,-3 V3 A3,3 0 0 0 13,0 z" id="svg_1" class="selected" fill="#181818" fill-opacity="1"/></g></svg>