<svg width="16" height="16" viewBox="0 0 16 16" fill="none" xmlns="http://www.w3.org/2000/svg">
<path d="M15.1199 0H0.88274C0.395257 0 0 0.395192 0 0.882595V15.1174C0 15.6048 0.395257 16 0.88274 16H8.54808V9.80339H6.46376V7.38745H8.54808V5.60645C8.54808 3.54092 9.81027 2.4133 11.6548 2.4133C12.5375 2.4133 13.2964 2.47917 13.5178 2.50815V4.66853H12.2398C11.2358 4.66853 11.0435 5.1454 11.0435 5.84357V7.38482H13.4361L13.1225 9.80076H11.0408V15.9974H15.1172C15.6047 15.9974 16 15.6022 16 15.1148V0.882595C16.0026 0.395192 15.6074 0 15.1199 0Z" fill="white"/>
</svg>
