<svg width="24" height="24" viewBox="0 0 24 24" fill="none" xmlns="http://www.w3.org/2000/svg">
<path fill-rule="evenodd" clip-rule="evenodd" d="M12 20.5C16.6944 20.5 20.5 16.6944 20.5 12C20.5 7.30558 16.6944 3.5 12 3.5C7.30558 3.5 3.5 7.30558 3.5 12C3.5 16.6944 7.30558 20.5 12 20.5ZM12 22C17.5228 22 22 17.5228 22 12C22 6.47715 17.5228 2 12 2C6.47715 2 2 6.47715 2 12C2 17.5228 6.47715 22 12 22Z" fill="#444444"/>
<path d="M11.0483 14.4574H12.2415V14.3977C12.2614 13.1648 12.5795 12.6278 13.4545 12.081C14.3295 11.549 14.8466 10.7834 14.8466 9.68466C14.8466 8.13352 13.7131 7 11.9631 7C10.3523 7 9.07457 7.99432 9 9.68466H10.2528C10.3274 8.51136 11.1477 8.03409 11.9631 8.03409C12.8977 8.03409 13.6534 8.65057 13.6534 9.625C13.6534 10.4155 13.201 10.9822 12.6193 11.3352C11.6449 11.9268 11.0632 12.5036 11.0483 14.3977V14.4574ZM11.6847 17.4006C12.1768 17.4006 12.5795 16.9979 12.5795 16.5057C12.5795 16.0135 12.1768 15.6108 11.6847 15.6108C11.1925 15.6108 10.7898 16.0135 10.7898 16.5057C10.7898 16.9979 11.1925 17.4006 11.6847 17.4006Z" fill="#1A1A1A"/>
</svg>
