<svg width="16" height="16" viewBox="0 0 16 16" fill="none" xmlns="http://www.w3.org/2000/svg">
<path d="M11.023 3.22667H4.97695C4.01191 3.22667 3.22667 4.01191 3.22667 4.97695V11.023C3.22667 11.9881 4.01191 12.7733 4.97695 12.7733H11.023C11.9881 12.7733 12.7733 11.9881 12.7733 11.023V4.97695C12.7733 4.01191 11.9881 3.22667 11.023 3.22667ZM7.9998 11.1428C6.26714 11.1428 4.85722 9.73286 4.85722 7.9998C4.85722 6.26714 6.26714 4.85722 7.9998 4.85722C9.73286 4.85722 11.1428 6.26714 11.1428 7.9998C11.1428 9.73286 9.73286 11.1428 7.9998 11.1428ZM11.2437 5.50712C10.8336 5.50712 10.5001 5.17356 10.5001 4.76352C10.5001 4.35348 10.8336 4.01992 11.2437 4.01992C11.6537 4.01992 11.9873 4.35348 11.9873 4.76352C11.9873 5.17356 11.6537 5.50712 11.2437 5.50712ZM7.9998 6.18545C6.99952 6.18545 6.18505 6.99952 6.18505 7.9998C6.18505 9.00047 6.99952 9.81495 7.9998 9.81495C9.00047 9.81495 9.81455 9.00047 9.81455 7.9998C9.81455 6.99952 9.00047 6.18545 7.9998 6.18545ZM11.023 3.22667H4.97695C4.01191 3.22667 3.22667 4.01191 3.22667 4.97695V11.023C3.22667 11.9881 4.01191 12.7733 4.97695 12.7733H11.023C11.9881 12.7733 12.7733 11.9881 12.7733 11.023V4.97695C12.7733 4.01191 11.9881 3.22667 11.023 3.22667ZM7.9998 11.1428C6.26714 11.1428 4.85722 9.73286 4.85722 7.9998C4.85722 6.26714 6.26714 4.85722 7.9998 4.85722C9.73286 4.85722 11.1428 6.26714 11.1428 7.9998C11.1428 9.73286 9.73286 11.1428 7.9998 11.1428ZM11.2437 5.50712C10.8336 5.50712 10.5001 5.17356 10.5001 4.76352C10.5001 4.35348 10.8336 4.01992 11.2437 4.01992C11.6537 4.01992 11.9873 4.35348 11.9873 4.76352C11.9873 5.17356 11.6537 5.50712 11.2437 5.50712ZM7.9998 6.18545C6.99952 6.18545 6.18505 6.99952 6.18505 7.9998C6.18505 9.00047 6.99952 9.81495 7.9998 9.81495C9.00047 9.81495 9.81455 9.00047 9.81455 7.9998C9.81455 6.99952 9.00047 6.18545 7.9998 6.18545ZM2 0C0.895431 0 0 0.895431 0 2V14C0 15.1046 0.895431 16 2 16H14C15.1046 16 16 15.1046 16 14V2C16 0.895431 15.1046 0 14 0H2ZM14.1012 11.023C14.1012 12.7205 12.7205 14.1012 11.023 14.1012H4.97695C3.27953 14.1012 1.89884 12.7205 1.89884 11.023V4.97695C1.89884 3.27953 3.27953 1.89884 4.97695 1.89884H11.023C12.7205 1.89884 14.1012 3.27953 14.1012 4.97695V11.023ZM11.023 3.22667H4.97695C4.01191 3.22667 3.22667 4.01191 3.22667 4.97695V11.023C3.22667 11.9881 4.01191 12.7733 4.97695 12.7733H11.023C11.9881 12.7733 12.7733 11.9881 12.7733 11.023V4.97695C12.7733 4.01191 11.9881 3.22667 11.023 3.22667ZM7.9998 11.1428C6.26714 11.1428 4.85722 9.73286 4.85722 7.9998C4.85722 6.26714 6.26714 4.85722 7.9998 4.85722C9.73286 4.85722 11.1428 6.26714 11.1428 7.9998C11.1428 9.73286 9.73286 11.1428 7.9998 11.1428ZM11.2437 5.50712C10.8336 5.50712 10.5001 5.17356 10.5001 4.76352C10.5001 4.35348 10.8336 4.01992 11.2437 4.01992C11.6537 4.01992 11.9873 4.35348 11.9873 4.76352C11.9873 5.17356 11.6537 5.50712 11.2437 5.50712ZM7.9998 6.18545C6.99952 6.18545 6.18505 6.99952 6.18505 7.9998C6.18505 9.00047 6.99952 9.81495 7.9998 9.81495C9.00047 9.81495 9.81455 9.00047 9.81455 7.9998C9.81455 6.99952 9.00047 6.18545 7.9998 6.18545Z" fill="white"/>
</svg>
