<svg width="23" height="24" viewBox="0 0 23 24" fill="none" xmlns="http://www.w3.org/2000/svg">
<path fill-rule="evenodd" clip-rule="evenodd" d="M0.301464 1.28242C0.696664 0.896702 1.32978 0.904328 1.71557 1.29945L22.2156 22.2954C22.6014 22.6905 22.5937 23.3235 22.1985 23.7092C21.8033 24.0949 21.1702 24.0873 20.7844 23.6922L0.284426 2.69626C-0.101365 2.30113 -0.093737 1.66813 0.301464 1.28242Z" fill="#444444"/>
<path fill-rule="evenodd" clip-rule="evenodd" d="M22.7156 1.29945C23.1014 1.69458 23.0937 2.32757 22.6985 2.71329L1.69853 23.2093C1.30333 23.595 0.670217 23.5874 0.284425 23.1923C-0.101367 22.7972 -0.0937376 22.1642 0.301463 21.7785L21.3015 1.28242C21.6967 0.896702 22.3298 0.904328 22.7156 1.29945Z" fill="#444444"/>
</svg>
