<svg width="24" height="24" viewBox="0 0 24 24" fill="none" xmlns="http://www.w3.org/2000/svg">
<mask id="path-1-inside-1" fill="white">
<path fill-rule="evenodd" clip-rule="evenodd" d="M19.4185 11.7125C19.4185 16.5204 15.5212 20.418 10.7137 20.418C5.90611 20.418 2.00881 16.5204 2.00881 11.7125C2.00881 6.90459 5.90611 3.00701 10.7137 3.00701C15.5212 3.00701 19.4185 6.90459 19.4185 11.7125ZM18.2487 19.3292C16.3132 21.2444 13.6515 22.4269 10.7137 22.4269C4.79668 22.4269 0 17.6299 0 11.7125C0 5.79507 4.79668 0.998047 10.7137 0.998047C16.6307 0.998047 21.4273 5.79507 21.4273 11.7125C21.4273 13.9661 20.7316 16.0572 19.5433 17.7827L23.7528 21.9925C24.1074 22.3472 24.0769 22.9527 23.6846 23.3449C23.2924 23.7372 22.6869 23.7677 22.3323 23.4131L18.2487 19.3292Z"/>
</mask>
<path fill-rule="evenodd" clip-rule="evenodd" d="M19.4185 11.7125C19.4185 16.5204 15.5212 20.418 10.7137 20.418C5.90611 20.418 2.00881 16.5204 2.00881 11.7125C2.00881 6.90459 5.90611 3.00701 10.7137 3.00701C15.5212 3.00701 19.4185 6.90459 19.4185 11.7125ZM18.2487 19.3292C16.3132 21.2444 13.6515 22.4269 10.7137 22.4269C4.79668 22.4269 0 17.6299 0 11.7125C0 5.79507 4.79668 0.998047 10.7137 0.998047C16.6307 0.998047 21.4273 5.79507 21.4273 11.7125C21.4273 13.9661 20.7316 16.0572 19.5433 17.7827L23.7528 21.9925C24.1074 22.3472 24.0769 22.9527 23.6846 23.3449C23.2924 23.7372 22.6869 23.7677 22.3323 23.4131L18.2487 19.3292Z" fill="#444444"/>
<path d="M18.2487 19.3292L18.3548 19.2231L18.2493 19.1176L18.1432 19.2226L18.2487 19.3292ZM19.5433 17.7827L19.4197 17.6976L19.3489 17.8005L19.4372 17.8888L19.5433 17.7827ZM23.7528 21.9925L23.8588 21.8865L23.7528 21.9925ZM23.6846 23.3449L23.7907 23.451L23.6846 23.3449ZM22.3323 23.4131L22.2263 23.5192L22.3323 23.4131ZM10.7137 20.568C15.6041 20.568 19.5685 16.6032 19.5685 11.7125H19.2685C19.2685 16.4376 15.4384 20.268 10.7137 20.268V20.568ZM1.85881 11.7125C1.85881 16.6032 5.82326 20.568 10.7137 20.568V20.268C5.98897 20.268 2.15881 16.4376 2.15881 11.7125H1.85881ZM10.7137 2.85701C5.82326 2.85701 1.85881 6.82175 1.85881 11.7125H2.15881C2.15881 6.98742 5.98897 3.15701 10.7137 3.15701V2.85701ZM19.5685 11.7125C19.5685 6.82175 15.6041 2.85701 10.7137 2.85701V3.15701C15.4384 3.15701 19.2685 6.98742 19.2685 11.7125H19.5685ZM10.7137 22.5769C13.6926 22.5769 16.3918 21.3776 18.3542 19.4358L18.1432 19.2226C16.2347 21.1111 13.6105 22.2769 10.7137 22.2769V22.5769ZM-0.15 11.7125C-0.15 17.7128 4.71382 22.5769 10.7137 22.5769V22.2769C4.87953 22.2769 0.15 17.5471 0.15 11.7125H-0.15ZM10.7137 0.848047C4.71382 0.848047 -0.15 5.71224 -0.15 11.7125H0.15C0.15 5.8779 4.87953 1.14805 10.7137 1.14805V0.848047ZM21.5773 11.7125C21.5773 5.71224 16.7135 0.848047 10.7137 0.848047V1.14805C16.5478 1.14805 21.2773 5.8779 21.2773 11.7125H21.5773ZM19.6668 17.8678C20.8718 16.1181 21.5773 13.9975 21.5773 11.7125H21.2773C21.2773 13.9348 20.5914 15.9964 19.4197 17.6976L19.6668 17.8678ZM19.4372 17.8888L23.6467 22.0986L23.8588 21.8865L19.6493 17.6767L19.4372 17.8888ZM23.6467 22.0986C23.9329 22.3849 23.9226 22.8949 23.5786 23.2389L23.7907 23.451C24.2312 23.0105 24.2818 22.3095 23.8588 21.8865L23.6467 22.0986ZM23.5786 23.2389C23.2346 23.5829 22.7246 23.5933 22.4384 23.307L22.2263 23.5192C22.6493 23.9422 23.3502 23.8915 23.7907 23.451L23.5786 23.2389ZM22.4384 23.307L18.3548 19.2231L18.1427 19.4353L22.2263 23.5192L22.4384 23.307Z" fill="white" mask="url(#path-1-inside-1)"/>
</svg>
