<svg width="21" height="20" viewBox="0 0 21 20" fill="none" xmlns="http://www.w3.org/2000/svg">
<path d="M13.1494 15.533V14.8181C13.1494 13.2332 12.3384 12.199 11.1041 11.9968V11.033H10.1977V11.9968C8.98424 12.2019 8.14941 13.2361 8.14941 14.8181V15.533H9.04387V14.8123C9.04387 13.696 9.51197 13.0193 10.1977 12.8201V15.533H11.1041V12.8201C11.8018 13.0164 12.252 13.6931 12.252 14.8123V15.533H13.1494Z" fill="#1A1A1A"/>
<path fill-rule="evenodd" clip-rule="evenodd" d="M4.38138 7.53295H7.79097L15.6447 2.81369L15.2474 2.12548C15.0403 1.76676 14.5813 1.64405 14.2221 1.85139L4.38138 7.53295ZM16.64 4.53749L11.4517 7.53295H18.3694L16.64 4.53749ZM20.4255 8.61257C20.3976 8.55012 20.3661 8.4885 20.3312 8.42796L16.3312 1.49975C15.7789 0.543168 14.5548 0.215937 13.5971 0.768862L1.66345 7.65877C1.05372 8.0108 0.698968 8.63472 0.664202 9.2885C0.65444 9.36862 0.649414 9.45019 0.649414 9.53295V17.5329C0.649414 18.6375 1.54485 19.5329 2.64941 19.5329H18.6494C19.754 19.5329 20.6494 18.6375 20.6494 17.5329V9.53295C20.6494 9.20107 20.5686 8.88807 20.4255 8.61257ZM18.6494 8.78295H2.64941C2.2352 8.78295 1.89941 9.11873 1.89941 9.53295V17.5329C1.89941 17.9472 2.2352 18.2829 2.64941 18.2829H18.6494C19.0636 18.2829 19.3994 17.9472 19.3994 17.5329V9.53295C19.3994 9.11873 19.0636 8.78295 18.6494 8.78295Z" fill="#1A1A1A"/>
</svg>
