<svg width="21" height="20" viewBox="0 0 21 20" fill="none" xmlns="http://www.w3.org/2000/svg">
<path d="M13.1113 15.533V14.8181C13.1113 13.2332 12.3004 12.199 11.066 11.9968V11.033H10.1596V11.9968C8.94615 12.2019 8.11133 13.2361 8.11133 14.8181V15.533H9.00578V14.8123C9.00578 13.696 9.47388 13.0193 10.1596 12.8201V15.533H11.066V12.8201C11.7637 13.0164 12.2139 13.6931 12.2139 14.8123V15.533H13.1113Z" fill="#6472B8"/>
<path fill-rule="evenodd" clip-rule="evenodd" d="M4.3433 7.53295H7.75288L15.6066 2.81369L15.2093 2.12548C15.0022 1.76676 14.5432 1.64405 14.184 1.85139L4.3433 7.53295ZM16.6019 4.53749L11.4136 7.53295H18.3313L16.6019 4.53749ZM20.3874 8.61257C20.3595 8.55012 20.328 8.4885 20.2931 8.42796L16.2931 1.49975C15.7408 0.543168 14.5167 0.215937 13.559 0.768862L1.62537 7.65877C1.01563 8.0108 0.660882 8.63472 0.626116 9.2885C0.616354 9.36862 0.611328 9.45019 0.611328 9.53295V17.5329C0.611328 18.6375 1.50676 19.5329 2.61133 19.5329H18.6113C19.7159 19.5329 20.6113 18.6375 20.6113 17.5329V9.53295C20.6113 9.20107 20.5305 8.88807 20.3874 8.61257ZM18.6113 8.78295H2.61133C2.19711 8.78295 1.86133 9.11873 1.86133 9.53295V17.5329C1.86133 17.9472 2.19711 18.2829 2.61133 18.2829H18.6113C19.0255 18.2829 19.3613 17.9472 19.3613 17.5329V9.53295C19.3613 9.11873 19.0255 8.78295 18.6113 8.78295Z" fill="#6472B8"/>
</svg>
