<svg width="21" height="20" viewBox="0 0 21 20" fill="none" xmlns="http://www.w3.org/2000/svg">
<path d="M13.0117 15.533V14.8181C13.0117 13.2332 12.2007 12.199 10.9664 11.9968V11.033H10.06V11.9968C8.84654 12.2019 8.01172 13.2361 8.01172 14.8181V15.533H8.90617V14.8123C8.90617 13.696 9.37427 13.0193 10.06 12.8201V15.533H10.9664V12.8201C11.6641 13.0164 12.1143 13.6931 12.1143 14.8123V15.533H13.0117Z" fill="white"/>
<path fill-rule="evenodd" clip-rule="evenodd" d="M4.24369 7.53295H7.65327L15.507 2.81369L15.1097 2.12548C14.9026 1.76676 14.4436 1.64405 14.0844 1.85139L4.24369 7.53295ZM16.5023 4.53749L11.314 7.53295H18.2317L16.5023 4.53749ZM20.2878 8.61257C20.2599 8.55012 20.2284 8.4885 20.1935 8.42796L16.1935 1.49975C15.6412 0.543168 14.4171 0.215937 13.4594 0.768862L1.52576 7.65877C0.916024 8.0108 0.561272 8.63472 0.526507 9.2885C0.516744 9.36862 0.511719 9.45019 0.511719 9.53295V17.5329C0.511719 18.6375 1.40715 19.5329 2.51172 19.5329H18.5117C19.6163 19.5329 20.5117 18.6375 20.5117 17.5329V9.53295C20.5117 9.20107 20.4309 8.88807 20.2878 8.61257ZM18.5117 8.78295H2.51172C2.09751 8.78295 1.76172 9.11873 1.76172 9.53295V17.5329C1.76172 17.9472 2.09751 18.2829 2.51172 18.2829H18.5117C18.9259 18.2829 19.2617 17.9472 19.2617 17.5329V9.53295C19.2617 9.11873 18.9259 8.78295 18.5117 8.78295Z" fill="white"/>
</svg>
