<svg width="20" height="19" viewBox="0 0 20 19" fill="none" xmlns="http://www.w3.org/2000/svg">
<path d="M8.71602 0.767695C9.26072 -0.255897 10.7393 -0.255899 11.284 0.767693L13.3645 4.67751C13.5746 5.07224 13.9575 5.34804 14.401 5.42413L18.7944 6.17781C19.9445 6.37512 20.4014 7.76933 19.5879 8.59926L16.4804 11.7693C16.1667 12.0894 16.0205 12.5356 16.0845 12.9774L16.7192 17.353C16.8853 18.4985 15.6892 19.3602 14.6417 18.8496L10.6406 16.899C10.2366 16.702 9.76338 16.702 9.35943 16.899L5.35832 18.8496C4.31083 19.3602 3.11465 18.4986 3.28081 17.353L3.91547 12.9774C3.97955 12.5356 3.83331 12.0894 3.51958 11.7693L0.412095 8.59926C-0.401446 7.76934 0.0554521 6.37512 1.20563 6.17781L5.59898 5.42413C6.04253 5.34804 6.42539 5.07224 6.63545 4.67751L8.71602 0.767695Z" fill="#FFC989"/>
</svg>
