<svg width="21" height="20" viewBox="0 0 21 20" fill="none" xmlns="http://www.w3.org/2000/svg">
<path fill-rule="evenodd" clip-rule="evenodd" d="M10.0371 18.5C14.7315 18.5 18.5371 14.6944 18.5371 10C18.5371 5.30558 14.7315 1.5 10.0371 1.5C5.34269 1.5 1.53711 5.30558 1.53711 10C1.53711 14.6944 5.34269 18.5 10.0371 18.5ZM10.0371 20C15.56 20 20.0371 15.5228 20.0371 10C20.0371 4.47715 15.56 0 10.0371 0C4.51426 0 0.0371094 4.47715 0.0371094 10C0.0371094 15.5228 4.51426 20 10.0371 20Z" fill="#1A1A1A"/>
<path fill-rule="evenodd" clip-rule="evenodd" d="M14.7974 6.1818C15.0922 6.44587 15.1188 6.90077 14.8567 7.19784L9.1424 13.6751C9.0117 13.8233 8.82615 13.9105 8.62952 13.9164C8.43288 13.9222 8.24256 13.846 8.10346 13.7059L5.24632 10.8271C4.96737 10.546 4.96737 10.0903 5.24632 9.80928C5.52526 9.52822 5.97752 9.52822 6.25647 9.80928L8.57795 12.1484L13.789 6.24156C14.051 5.94449 14.5025 5.91773 14.7974 6.1818Z" fill="#1A1A1A"/>
</svg>
