<svg width="16" height="20" viewBox="0 0 16 20" fill="none" xmlns="http://www.w3.org/2000/svg">
<path fill-rule="evenodd" clip-rule="evenodd" d="M5.6271 3.79747C5.6271 3.41268 5.74879 2.81858 6.09156 2.34251C6.40645 1.90517 6.93793 1.51899 7.90558 1.51899C8.87324 1.51899 9.40472 1.90517 9.71961 2.34251C10.0624 2.81858 10.1841 3.41268 10.1841 3.79747H5.6271ZM4.10811 5.31646V6.83544C4.10811 7.2549 4.44815 7.59494 4.86761 7.59494C5.28706 7.59494 5.6271 7.2549 5.6271 6.83544V5.31646H10.1841V6.83544C10.1841 7.2549 10.5241 7.59494 10.9436 7.59494C11.363 7.59494 11.7031 7.2549 11.7031 6.83544V5.31646H13.5672L14.2891 16.8673C14.3438 17.7418 13.6493 18.481 12.7731 18.481H3.0381C2.16191 18.481 1.46741 17.7418 1.52207 16.8673L2.24399 5.31646H4.10811ZM4.10811 3.79747C4.10811 3.1696 4.29023 2.24471 4.85885 1.45496C5.45535 0.62648 6.44286 0 7.90558 0C9.36831 0 10.3558 0.62648 10.9523 1.45496C11.5209 2.24471 11.7031 3.1696 11.7031 3.79747H14.0429C14.5776 3.79747 15.0202 4.21325 15.0535 4.74696L15.8051 16.7725C15.9144 18.5215 14.5254 20 12.7731 20H3.0381C1.28573 20 -0.103272 18.5215 0.00603732 16.7725L0.757635 4.74696C0.790992 4.21325 1.23357 3.79747 1.76832 3.79747H4.10811Z" fill="#1A1A1A"/>
</svg>
